<svg id="SvgjsSvg1185" width="288" height="288" xmlns="http://www.w3.org/2000/svg" version="1.1" xmlns:xlink="http://www.w3.org/1999/xlink" xmlns:svgjs="http://svgjs.com/svgjs"><defs id="SvgjsDefs1186"></defs><g id="SvgjsG1187"><svg xmlns="http://www.w3.org/2000/svg" viewBox="0 0 32 32" width="288" height="288"><g transform="translate(-345 -2171.852)" fill="#000000" class="color000 svgShape"><path d="M347 2180.852h26c.554 0 1 .446 1 1v15c0 .554-.446 1-1 1h-26c-.554 0-1-.446-1-1v-15c0-.554.446-1 1-1z" color="#000" opacity=".15" overflow="visible" style="isolation:auto;mix-blend-mode:normal" fill="#000000" class="color000 svgShape"></path><rect width="6" height="3.5" x="357.5" y="2178.852" fill="none" stroke="#000000" stroke-dashoffset=".5" stroke-linecap="round" stroke-linejoin="round" color="#000" opacity=".15" overflow="visible" rx="1" ry="1" style="isolation:auto;mix-blend-mode:normal" class="colorStroke000 svgStroke"></rect><path fill="#70459c" d="M348 2180.852h26c.554 0 1 .446 1 1v15c0 .554-.446 1-1 1h-26c-.554 0-1-.446-1-1v-15c0-.554.446-1 1-1z" color="#000" overflow="visible" style="isolation:auto;mix-blend-mode:normal" class="color34485c svgShape"></path><rect width="6" height="3.5" x="358.5" y="2178.852" fill="none" stroke="#d87efd" stroke-dashoffset=".5" stroke-linecap="round" stroke-linejoin="round" color="#000" overflow="visible" rx="1" ry="1" style="isolation:auto;mix-blend-mode:normal" class="colorStroke576d7e svgStroke"></rect><path style="isolation:auto;mix-blend-mode:normal" d="M375 2181.852v4.34c0 1.824-1.561 3.294-3.5 3.294h-21c-1.939 0-3.5-1.47-3.5-3.294v-4.34" color="#000" opacity=".15" overflow="visible" fill="#000000" class="color000 svgShape"></path><path fill="#492b55" d="M348 2180.852c-.554 0-1 .446-1 1v3.34c0 1.825 1.561 3.293 3.5 3.293h21c1.939 0 3.5-1.468 3.5-3.293v-3.34c0-.554-.446-1-1-1z" color="#000" overflow="visible" style="isolation:auto;mix-blend-mode:normal" class="color2b4255 svgShape"></path><rect opacity=".15" style="isolation:auto;mix-blend-mode:normal" width="3" height="2" x="2187.852" y="-361.5" fill-opacity=".976" color="#000" overflow="visible" rx="0" ry="0" transform="rotate(90)" fill="#000000" class="color000 svgShape"></rect><rect width="3" height="2" x="2187.852" y="-362.5" fill="#914ef8" fill-opacity=".976" color="#000" overflow="visible" rx="0" ry="0" transform="rotate(90)" style="isolation:auto;mix-blend-mode:normal" class="colorf8b74e svgShape"></rect><path d="M352.5 2173.852c.831 0 1.5.669 1.5 1.5v23.5l-2 4v-29h.5zm-1 0c-.831 0-1.5.669-1.5 1.5v23.5l2 4v-29h-.5z" color="#000" opacity=".146" overflow="visible" style="isolation:auto;mix-blend-mode:normal" fill="#000000" class="color000 svgShape"></path><path fill="#bb42f0" color="#000" opacity=".97" overflow="visible" style="isolation:auto;mix-blend-mode:normal" d="M351 2176.852h4v22h-4z" class="colorf05542 svgShape"></path><path fill="#d8bffe" d="M351 2198.852h4l-2 4zm0-22v-1.5c0-.831.669-1.5 1.5-1.5h1c.831 0 1.5.669 1.5 1.5v1.5z" color="#000" opacity=".97" overflow="visible" style="isolation:auto;mix-blend-mode:normal" class="colore9eded svgShape"></path><path fill="#70459c" d="m352.5 2201.852.5 1 .5-1h-1zM351 2176.852h4v1h-4z" color="#000" opacity=".97" overflow="visible" style="isolation:auto;mix-blend-mode:normal" class="color34485c svgShape"></path><path fill="none" stroke="#51395b" d="M353 2177.852v21" class="colorStroke39485b svgStroke"></path></g></svg></g></svg>