<?xml version="1.0" encoding="us-ascii" standalone="no"?><svg xmlns="http://www.w3.org/2000/svg" xmlns:xlink="http://www.w3.org/1999/xlink" contentStyleType="text/css" height="794px" preserveAspectRatio="none" style="width:599px;height:794px;background:#FFFFFF;" version="1.1" viewBox="0 0 599 794" width="599px" zoomAndPan="magnify"><defs/><g><!--class Users--><g id="elem_Users"><rect codeLine="5" fill="#F1F1F1" height="129.4844" id="Users" rx="2.5" ry="2.5" style="stroke:#181818;stroke-width:0.5;" width="146" x="207" y="7"/><ellipse cx="256.75" cy="23" fill="#ADD1B2" rx="11" ry="11" style="stroke:#181818;stroke-width:1.0;"/><path d="M259.0938,18.6719 C258.1563,18.2344 257.5625,18.0938 256.6875,18.0938 C254.0625,18.0938 252.0625,20.1719 252.0625,22.8906 L252.0625,24.0156 C252.0625,26.5938 254.1719,28.4844 257.0625,28.4844 C258.2813,28.4844 259.4375,28.1875 260.1875,27.6406 C260.7656,27.2344 261.0938,26.7813 261.0938,26.3906 C261.0938,25.9375 260.7031,25.5469 260.2344,25.5469 C260.0156,25.5469 259.8125,25.625 259.625,25.8125 C259.1719,26.2969 259.1719,26.2969 258.9844,26.3906 C258.5625,26.6563 257.875,26.7813 257.1094,26.7813 C255.0625,26.7813 253.7656,25.6875 253.7656,23.9844 L253.7656,22.8906 C253.7656,21.1094 255.0156,19.7969 256.75,19.7969 C257.3281,19.7969 257.9375,19.9531 258.4063,20.2031 C258.8906,20.4844 259.0625,20.7031 259.1563,21.1094 C259.2188,21.5156 259.25,21.6406 259.3906,21.7656 C259.5313,21.9063 259.7656,22.0156 259.9844,22.0156 C260.25,22.0156 260.5156,21.875 260.6875,21.6563 C260.7969,21.5 260.8281,21.3125 260.8281,20.8906 L260.8281,19.4688 C260.8281,19.0313 260.8125,18.9063 260.7188,18.75 C260.5625,18.4844 260.2813,18.3438 259.9844,18.3438 C259.6875,18.3438 259.4844,18.4375 259.2656,18.75 L259.0938,18.6719 Z " fill="#000000"/><text fill="#000000" font-family="sans-serif" font-size="14" lengthAdjust="spacing" textLength="38" x="277.25" y="27.8467">Users</text><line style="stroke:#181818;stroke-width:0.5;" x1="208" x2="352" y1="39" y2="39"/><text fill="#000000" font-family="sans-serif" font-size="14" lengthAdjust="spacing" textLength="134" x="213" y="55.9951">_id : ObjectId &#171;PK&#187;</text><text fill="#000000" font-family="sans-serif" font-size="14" lengthAdjust="spacing" textLength="85" x="213" y="72.292">role : String</text><text fill="#000000" font-family="sans-serif" font-size="14" lengthAdjust="spacing" textLength="97" x="213" y="88.5889">name : String</text><text fill="#000000" font-family="sans-serif" font-size="14" lengthAdjust="spacing" textLength="96" x="213" y="104.8857">email : String</text><text fill="#000000" font-family="sans-serif" font-size="14" lengthAdjust="spacing" textLength="86" x="213" y="121.1826">tc : Boolean</text><line style="stroke:#181818;stroke-width:0.5;" x1="208" x2="352" y1="128.4844" y2="128.4844"/></g><!--class Skills--><g id="elem_Skills"><rect codeLine="13" fill="#F1F1F1" height="96.8906" id="Skills" rx="2.5" ry="2.5" style="stroke:#181818;stroke-width:0.5;" width="151" x="388.5" y="23"/><ellipse cx="441.25" cy="39" fill="#ADD1B2" rx="11" ry="11" style="stroke:#181818;stroke-width:1.0;"/><path d="M443.5938,34.6719 C442.6563,34.2344 442.0625,34.0938 441.1875,34.0938 C438.5625,34.0938 436.5625,36.1719 436.5625,38.8906 L436.5625,40.0156 C436.5625,42.5938 438.6719,44.4844 441.5625,44.4844 C442.7813,44.4844 443.9375,44.1875 444.6875,43.6406 C445.2656,43.2344 445.5938,42.7813 445.5938,42.3906 C445.5938,41.9375 445.2031,41.5469 444.7344,41.5469 C444.5156,41.5469 444.3125,41.625 444.125,41.8125 C443.6719,42.2969 443.6719,42.2969 443.4844,42.3906 C443.0625,42.6563 442.375,42.7813 441.6094,42.7813 C439.5625,42.7813 438.2656,41.6875 438.2656,39.9844 L438.2656,38.8906 C438.2656,37.1094 439.5156,35.7969 441.25,35.7969 C441.8281,35.7969 442.4375,35.9531 442.9063,36.2031 C443.3906,36.4844 443.5625,36.7031 443.6563,37.1094 C443.7188,37.5156 443.75,37.6406 443.8906,37.7656 C444.0313,37.9063 444.2656,38.0156 444.4844,38.0156 C444.75,38.0156 445.0156,37.875 445.1875,37.6563 C445.2969,37.5 445.3281,37.3125 445.3281,36.8906 L445.3281,35.4688 C445.3281,35.0313 445.3125,34.9063 445.2188,34.75 C445.0625,34.4844 444.7813,34.3438 444.4844,34.3438 C444.1875,34.3438 443.9844,34.4375 443.7656,34.75 L443.5938,34.6719 Z " fill="#000000"/><text fill="#000000" font-family="sans-serif" font-size="14" lengthAdjust="spacing" textLength="37" x="461.75" y="43.8467">Skills</text><line style="stroke:#181818;stroke-width:0.5;" x1="389.5" x2="538.5" y1="55" y2="55"/><text fill="#000000" font-family="sans-serif" font-size="14" lengthAdjust="spacing" textLength="134" x="394.5" y="71.9951">_id : ObjectId &#171;PK&#187;</text><text fill="#000000" font-family="sans-serif" font-size="14" lengthAdjust="spacing" textLength="97" x="394.5" y="88.292">name : String</text><text fill="#000000" font-family="sans-serif" font-size="14" lengthAdjust="spacing" textLength="139" x="394.5" y="104.5889">description : String</text><line style="stroke:#181818;stroke-width:0.5;" x1="389.5" x2="538.5" y1="111.8906" y2="111.8906"/></g><!--class Jobs--><g id="elem_Jobs"><rect codeLine="19" fill="#F1F1F1" height="162.0781" id="Jobs" rx="2.5" ry="2.5" style="stroke:#181818;stroke-width:0.5;" width="166" x="197" y="403"/><ellipse cx="260.75" cy="419" fill="#ADD1B2" rx="11" ry="11" style="stroke:#181818;stroke-width:1.0;"/><path d="M263.0938,414.6719 C262.1563,414.2344 261.5625,414.0938 260.6875,414.0938 C258.0625,414.0938 256.0625,416.1719 256.0625,418.8906 L256.0625,420.0156 C256.0625,422.5938 258.1719,424.4844 261.0625,424.4844 C262.2813,424.4844 263.4375,424.1875 264.1875,423.6406 C264.7656,423.2344 265.0938,422.7813 265.0938,422.3906 C265.0938,421.9375 264.7031,421.5469 264.2344,421.5469 C264.0156,421.5469 263.8125,421.625 263.625,421.8125 C263.1719,422.2969 263.1719,422.2969 262.9844,422.3906 C262.5625,422.6563 261.875,422.7813 261.1094,422.7813 C259.0625,422.7813 257.7656,421.6875 257.7656,419.9844 L257.7656,418.8906 C257.7656,417.1094 259.0156,415.7969 260.75,415.7969 C261.3281,415.7969 261.9375,415.9531 262.4063,416.2031 C262.8906,416.4844 263.0625,416.7031 263.1563,417.1094 C263.2188,417.5156 263.25,417.6406 263.3906,417.7656 C263.5313,417.9063 263.7656,418.0156 263.9844,418.0156 C264.25,418.0156 264.5156,417.875 264.6875,417.6563 C264.7969,417.5 264.8281,417.3125 264.8281,416.8906 L264.8281,415.4688 C264.8281,415.0313 264.8125,414.9063 264.7188,414.75 C264.5625,414.4844 264.2813,414.3438 263.9844,414.3438 C263.6875,414.3438 263.4844,414.4375 263.2656,414.75 L263.0938,414.6719 Z " fill="#000000"/><text fill="#000000" font-family="sans-serif" font-size="14" lengthAdjust="spacing" textLength="30" x="281.25" y="423.8467">Jobs</text><line style="stroke:#181818;stroke-width:0.5;" x1="198" x2="362" y1="435" y2="435"/><text fill="#000000" font-family="sans-serif" font-size="14" lengthAdjust="spacing" textLength="134" x="203" y="451.9951">_id : ObjectId &#171;PK&#187;</text><text fill="#000000" font-family="sans-serif" font-size="14" lengthAdjust="spacing" textLength="88" x="203" y="468.292">title : String</text><text fill="#000000" font-family="sans-serif" font-size="14" lengthAdjust="spacing" textLength="154" x="203" y="484.5889">job_search_id : String</text><text fill="#000000" font-family="sans-serif" font-size="14" lengthAdjust="spacing" textLength="139" x="203" y="500.8857">description : String</text><text fill="#000000" font-family="sans-serif" font-size="14" lengthAdjust="spacing" textLength="154" x="203" y="517.1826">requirements : String</text><text fill="#000000" font-family="sans-serif" font-size="14" lengthAdjust="spacing" textLength="121" x="203" y="533.4795">createdAt : Date</text><text fill="#000000" font-family="sans-serif" font-size="14" lengthAdjust="spacing" textLength="125" x="203" y="549.7764">updatedAt : Date</text><line style="stroke:#181818;stroke-width:0.5;" x1="198" x2="362" y1="557.0781" y2="557.0781"/></g><!--class Applications--><g id="elem_Applications"><rect codeLine="29" fill="#F1F1F1" height="145.7813" id="Applications" rx="2.5" ry="2.5" style="stroke:#181818;stroke-width:0.5;" width="146" x="7" y="642"/><ellipse cx="32.8" cy="658" fill="#ADD1B2" rx="11" ry="11" style="stroke:#181818;stroke-width:1.0;"/><path d="M35.1438,653.6719 C34.2063,653.2344 33.6125,653.0938 32.7375,653.0938 C30.1125,653.0938 28.1125,655.1719 28.1125,657.8906 L28.1125,659.0156 C28.1125,661.5938 30.2219,663.4844 33.1125,663.4844 C34.3313,663.4844 35.4875,663.1875 36.2375,662.6406 C36.8156,662.2344 37.1438,661.7813 37.1438,661.3906 C37.1438,660.9375 36.7531,660.5469 36.2844,660.5469 C36.0656,660.5469 35.8625,660.625 35.675,660.8125 C35.2219,661.2969 35.2219,661.2969 35.0344,661.3906 C34.6125,661.6563 33.925,661.7813 33.1594,661.7813 C31.1125,661.7813 29.8156,660.6875 29.8156,658.9844 L29.8156,657.8906 C29.8156,656.1094 31.0656,654.7969 32.8,654.7969 C33.3781,654.7969 33.9875,654.9531 34.4563,655.2031 C34.9406,655.4844 35.1125,655.7031 35.2063,656.1094 C35.2688,656.5156 35.3,656.6406 35.4406,656.7656 C35.5813,656.9063 35.8156,657.0156 36.0344,657.0156 C36.3,657.0156 36.5656,656.875 36.7375,656.6563 C36.8469,656.5 36.8781,656.3125 36.8781,655.8906 L36.8781,654.4688 C36.8781,654.0313 36.8625,653.9063 36.7688,653.75 C36.6125,653.4844 36.3313,653.3438 36.0344,653.3438 C35.7375,653.3438 35.5344,653.4375 35.3156,653.75 L35.1438,653.6719 Z " fill="#000000"/><text fill="#000000" font-family="sans-serif" font-size="14" lengthAdjust="spacing" textLength="90" x="49.2" y="662.8467">Applications</text><line style="stroke:#181818;stroke-width:0.5;" x1="8" x2="152" y1="674" y2="674"/><text fill="#000000" font-family="sans-serif" font-size="14" lengthAdjust="spacing" textLength="134" x="13" y="690.9951">_id : ObjectId &#171;PK&#187;</text><text fill="#000000" font-family="sans-serif" font-size="14" lengthAdjust="spacing" textLength="125" x="13" y="707.292">user_id : ObjectId</text><text fill="#000000" font-family="sans-serif" font-size="14" lengthAdjust="spacing" textLength="118" x="13" y="723.5889">job_id : ObjectId</text><text fill="#000000" font-family="sans-serif" font-size="14" lengthAdjust="spacing" textLength="101" x="13" y="739.8857">status : String</text><text fill="#000000" font-family="sans-serif" font-size="14" lengthAdjust="spacing" textLength="121" x="13" y="756.1826">createdAt : Date</text><text fill="#000000" font-family="sans-serif" font-size="14" lengthAdjust="spacing" textLength="125" x="13" y="772.4795">updatedAt : Date</text><line style="stroke:#181818;stroke-width:0.5;" x1="8" x2="152" y1="779.7813" y2="779.7813"/></g><!--class Companies--><g id="elem_Companies"><rect codeLine="38" fill="#F1F1F1" height="113.1875" id="Companies" rx="2.5" ry="2.5" style="stroke:#181818;stroke-width:0.5;" width="151" x="204.5" y="213"/><ellipse cx="237.05" cy="229" fill="#ADD1B2" rx="11" ry="11" style="stroke:#181818;stroke-width:1.0;"/><path d="M239.3938,224.6719 C238.4563,224.2344 237.8625,224.0938 236.9875,224.0938 C234.3625,224.0938 232.3625,226.1719 232.3625,228.8906 L232.3625,230.0156 C232.3625,232.5938 234.4719,234.4844 237.3625,234.4844 C238.5813,234.4844 239.7375,234.1875 240.4875,233.6406 C241.0656,233.2344 241.3938,232.7813 241.3938,232.3906 C241.3938,231.9375 241.0031,231.5469 240.5344,231.5469 C240.3156,231.5469 240.1125,231.625 239.925,231.8125 C239.4719,232.2969 239.4719,232.2969 239.2844,232.3906 C238.8625,232.6563 238.175,232.7813 237.4094,232.7813 C235.3625,232.7813 234.0656,231.6875 234.0656,229.9844 L234.0656,228.8906 C234.0656,227.1094 235.3156,225.7969 237.05,225.7969 C237.6281,225.7969 238.2375,225.9531 238.7063,226.2031 C239.1906,226.4844 239.3625,226.7031 239.4563,227.1094 C239.5188,227.5156 239.55,227.6406 239.6906,227.7656 C239.8313,227.9063 240.0656,228.0156 240.2844,228.0156 C240.55,228.0156 240.8156,227.875 240.9875,227.6563 C241.0969,227.5 241.1281,227.3125 241.1281,226.8906 L241.1281,225.4688 C241.1281,225.0313 241.1125,224.9063 241.0188,224.75 C240.8625,224.4844 240.5813,224.3438 240.2844,224.3438 C239.9875,224.3438 239.7844,224.4375 239.5656,224.75 L239.3938,224.6719 Z " fill="#000000"/><text fill="#000000" font-family="sans-serif" font-size="14" lengthAdjust="spacing" textLength="80" x="254.95" y="233.8467">Companies</text><line style="stroke:#181818;stroke-width:0.5;" x1="205.5" x2="354.5" y1="245" y2="245"/><text fill="#000000" font-family="sans-serif" font-size="14" lengthAdjust="spacing" textLength="134" x="210.5" y="261.9951">_id : ObjectId &#171;PK&#187;</text><text fill="#000000" font-family="sans-serif" font-size="14" lengthAdjust="spacing" textLength="97" x="210.5" y="278.292">name : String</text><text fill="#000000" font-family="sans-serif" font-size="14" lengthAdjust="spacing" textLength="139" x="210.5" y="294.5889">description : String</text><text fill="#000000" font-family="sans-serif" font-size="14" lengthAdjust="spacing" textLength="115" x="210.5" y="310.8857">industry : String</text><line style="stroke:#181818;stroke-width:0.5;" x1="205.5" x2="354.5" y1="318.1875" y2="318.1875"/></g><!--class Salaries--><g id="elem_Salaries"><rect codeLine="45" fill="#F1F1F1" height="113.1875" id="Salaries" rx="2.5" ry="2.5" style="stroke:#181818;stroke-width:0.5;" width="188" x="188" y="658.5"/><ellipse cx="250.25" cy="674.5" fill="#ADD1B2" rx="11" ry="11" style="stroke:#181818;stroke-width:1.0;"/><path d="M252.5938,670.1719 C251.6563,669.7344 251.0625,669.5938 250.1875,669.5938 C247.5625,669.5938 245.5625,671.6719 245.5625,674.3906 L245.5625,675.5156 C245.5625,678.0938 247.6719,679.9844 250.5625,679.9844 C251.7813,679.9844 252.9375,679.6875 253.6875,679.1406 C254.2656,678.7344 254.5938,678.2813 254.5938,677.8906 C254.5938,677.4375 254.2031,677.0469 253.7344,677.0469 C253.5156,677.0469 253.3125,677.125 253.125,677.3125 C252.6719,677.7969 252.6719,677.7969 252.4844,677.8906 C252.0625,678.1563 251.375,678.2813 250.6094,678.2813 C248.5625,678.2813 247.2656,677.1875 247.2656,675.4844 L247.2656,674.3906 C247.2656,672.6094 248.5156,671.2969 250.25,671.2969 C250.8281,671.2969 251.4375,671.4531 251.9063,671.7031 C252.3906,671.9844 252.5625,672.2031 252.6563,672.6094 C252.7188,673.0156 252.75,673.1406 252.8906,673.2656 C253.0313,673.4063 253.2656,673.5156 253.4844,673.5156 C253.75,673.5156 254.0156,673.375 254.1875,673.1563 C254.2969,673 254.3281,672.8125 254.3281,672.3906 L254.3281,670.9688 C254.3281,670.5313 254.3125,670.4063 254.2188,670.25 C254.0625,669.9844 253.7813,669.8438 253.4844,669.8438 C253.1875,669.8438 252.9844,669.9375 252.7656,670.25 L252.5938,670.1719 Z " fill="#000000"/><text fill="#000000" font-family="sans-serif" font-size="14" lengthAdjust="spacing" textLength="55" x="270.75" y="679.3467">Salaries</text><line style="stroke:#181818;stroke-width:0.5;" x1="189" x2="375" y1="690.5" y2="690.5"/><text fill="#000000" font-family="sans-serif" font-size="14" lengthAdjust="spacing" textLength="134" x="194" y="707.4951">_id : ObjectId &#171;PK&#187;</text><text fill="#000000" font-family="sans-serif" font-size="14" lengthAdjust="spacing" textLength="118" x="194" y="723.792">job_id : ObjectId</text><text fill="#000000" font-family="sans-serif" font-size="14" lengthAdjust="spacing" textLength="176" x="194" y="740.0889">average_salary : Decimal</text><text fill="#000000" font-family="sans-serif" font-size="14" lengthAdjust="spacing" textLength="146" x="194" y="756.3857">salary_range : String</text><line style="stroke:#181818;stroke-width:0.5;" x1="189" x2="375" y1="763.6875" y2="763.6875"/></g><!--class CodingSubmissions--><g id="elem_CodingSubmissions"><rect codeLine="52" fill="#F1F1F1" height="129.4844" id="CodingSubmissions" rx="2.5" ry="2.5" style="stroke:#181818;stroke-width:0.5;" width="180" x="412" y="650.5"/><ellipse cx="431.5" cy="666.5" fill="#ADD1B2" rx="11" ry="11" style="stroke:#181818;stroke-width:1.0;"/><path d="M433.8438,662.1719 C432.9063,661.7344 432.3125,661.5938 431.4375,661.5938 C428.8125,661.5938 426.8125,663.6719 426.8125,666.3906 L426.8125,667.5156 C426.8125,670.0938 428.9219,671.9844 431.8125,671.9844 C433.0313,671.9844 434.1875,671.6875 434.9375,671.1406 C435.5156,670.7344 435.8438,670.2813 435.8438,669.8906 C435.8438,669.4375 435.4531,669.0469 434.9844,669.0469 C434.7656,669.0469 434.5625,669.125 434.375,669.3125 C433.9219,669.7969 433.9219,669.7969 433.7344,669.8906 C433.3125,670.1563 432.625,670.2813 431.8594,670.2813 C429.8125,670.2813 428.5156,669.1875 428.5156,667.4844 L428.5156,666.3906 C428.5156,664.6094 429.7656,663.2969 431.5,663.2969 C432.0781,663.2969 432.6875,663.4531 433.1563,663.7031 C433.6406,663.9844 433.8125,664.2031 433.9063,664.6094 C433.9688,665.0156 434,665.1406 434.1406,665.2656 C434.2813,665.4063 434.5156,665.5156 434.7344,665.5156 C435,665.5156 435.2656,665.375 435.4375,665.1563 C435.5469,665 435.5781,664.8125 435.5781,664.3906 L435.5781,662.9688 C435.5781,662.5313 435.5625,662.4063 435.4688,662.25 C435.3125,661.9844 435.0313,661.8438 434.7344,661.8438 C434.4375,661.8438 434.2344,661.9375 434.0156,662.25 L433.8438,662.1719 Z " fill="#000000"/><text fill="#000000" font-family="sans-serif" font-size="14" lengthAdjust="spacing" textLength="138" x="446.5" y="671.3467">CodingSubmissions</text><line style="stroke:#181818;stroke-width:0.5;" x1="413" x2="591" y1="682.5" y2="682.5"/><text fill="#000000" font-family="sans-serif" font-size="14" lengthAdjust="spacing" textLength="134" x="418" y="699.4951">_id : ObjectId &#171;PK&#187;</text><text fill="#000000" font-family="sans-serif" font-size="14" lengthAdjust="spacing" textLength="125" x="418" y="715.792">user_id : ObjectId</text><text fill="#000000" font-family="sans-serif" font-size="14" lengthAdjust="spacing" textLength="118" x="418" y="732.0889">job_id : ObjectId</text><text fill="#000000" font-family="sans-serif" font-size="14" lengthAdjust="spacing" textLength="168" x="418" y="748.3857">submission_time : Date</text><text fill="#000000" font-family="sans-serif" font-size="14" lengthAdjust="spacing" textLength="98" x="418" y="764.6826">result : String</text><line style="stroke:#181818;stroke-width:0.5;" x1="413" x2="591" y1="771.9844" y2="771.9844"/></g><!--link Users to Applications--><g id="link_Users_Applications"><path codeLine="60" d="M230.619,136.088 C214.661,159.238 198.212,186.299 187,213 C126.05,358.147 98.2316,542.082 86.867,641.783 " fill="none" id="Users-Applications" style="stroke:#181818;stroke-width:1.0;"/><text fill="#000000" font-family="sans-serif" font-size="13" lengthAdjust="spacing" textLength="83" x="141" y="369.0669">One-to-Many</text></g><!--link Jobs to Applications--><g id="link_Jobs_Applications"><path codeLine="61" d="M210.05,565.093 C188.197,590.115 164.233,617.553 142.895,641.985 " fill="none" id="Jobs-Applications" style="stroke:#181818;stroke-width:1.0;"/><text fill="#000000" font-family="sans-serif" font-size="13" lengthAdjust="spacing" textLength="83" x="181" y="608.0669">One-to-Many</text></g><!--link Jobs to Salaries--><g id="link_Jobs_Salaries"><path codeLine="62" d="M276.934,565.282 C276.673,580.784 276.63,596.897 277,612 C277.369,627.066 278.044,643.372 278.782,658.434 " fill="none" id="Jobs-Salaries" style="stroke:#181818;stroke-width:1.0;"/><text fill="#000000" font-family="sans-serif" font-size="13" lengthAdjust="spacing" textLength="75" x="278" y="608.0669">One-to-One</text></g><!--link Users to CodingSubmissions--><g id="link_Users_CodingSubmissions"><path codeLine="63" d="M353.223,130.165 C363.75,141.128 373.527,153.208 381,166 C472.899,323.32 495.103,543.21 500.396,650.315 " fill="none" id="Users-CodingSubmissions" style="stroke:#181818;stroke-width:1.0;"/><text fill="#000000" font-family="sans-serif" font-size="13" lengthAdjust="spacing" textLength="83" x="461" y="369.0669">One-to-Many</text></g><!--link Jobs to CodingSubmissions--><g id="link_Jobs_CodingSubmissions"><path codeLine="64" d="M350.161,565.189 C364.437,580.926 379.521,597.15 394,612 C406.333,624.649 419.798,637.832 432.907,650.358 " fill="none" id="Jobs-CodingSubmissions" style="stroke:#181818;stroke-width:1.0;"/><text fill="#000000" font-family="sans-serif" font-size="13" lengthAdjust="spacing" textLength="83" x="395" y="608.0669">One-to-Many</text></g><!--link Users to Companies--><g id="link_Users_Companies"><path codeLine="65" d="M280,136.136 C280,160.839 280,188.877 280,212.77 " fill="none" id="Users-Companies" style="stroke:#181818;stroke-width:1.0;"/><text fill="#000000" font-family="sans-serif" font-size="13" lengthAdjust="spacing" textLength="91" x="281" y="179.0669">Many-to-Many</text></g><!--link Companies to Jobs--><g id="link_Companies_Jobs"><path codeLine="66" d="M280,326.054 C280,349.542 280,377.347 280,402.979 " fill="none" id="Companies-Jobs" style="stroke:#181818;stroke-width:1.0;"/><text fill="#000000" font-family="sans-serif" font-size="13" lengthAdjust="spacing" textLength="83" x="281" y="369.0669">One-to-Many</text></g><!--SRC=[hLFBRi8m4BpdAmpt_012I1GuK4H1X1uuHHjxIvSwTcexbL3LVwyJ0Y6KXahb5E_iU6OVJaVW2obaawVrTBrXN8ArGT2fqELgEX-kDl5iic7z_d8s60H1nNosQ2px31YBIR0UMoGxv6ugZZp6Z9Re4v4pfBO-Lf0sOao1v3dWk8yUjBy6AlWwEKLl96MxrQMqGCiDPOwqgk5QyL4dxNgENBFsdKvYYs3uw-5AkvFl7TzpCfYYSlOSvmR1eHWw3uxzoKDv9ffGNUSmooHnACJRwytzCfgvgkPBp3fm-Jyg6kaq0qLuXtKmHaharfdzjHL58C7SyhdM8NoWWIt6jX0efCV8AGLPD5z2iG6rnMkU8oqy4EL9IjRUSUOdmTXHEPXgpWPjBbsZaiDV5ORDrVTOTw4mT3gSWzftW_Bz_fLqccHDy9zkRVMpxT-aRZFFH8yFnLEANCsfKvvNIb-eV0C0]--></g></svg>