<?xml version="1.0" encoding="UTF-8" standalone="no"?><!DOCTYPE svg PUBLIC "-//W3C//DTD SVG 1.1//EN" "http://www.w3.org/Graphics/SVG/1.1/DTD/svg11.dtd"><!-- Generated by graphviz version 2.40.1 (20161225.0304)
 --><!-- Title: CareerBoostDFD Pages: 1 --><svg xmlns="http://www.w3.org/2000/svg" xmlns:xlink="http://www.w3.org/1999/xlink" width="695pt" height="269pt" viewBox="0.00 0.00 695.31 269.22">
<g id="graph0" class="graph" transform="scale(1 1) rotate(0) translate(4 265.2178)">
<title>CareerBoostDFD</title>
<polygon fill="#ffffff" stroke="transparent" points="-4,4 -4,-265.2178 691.3127,-265.2178 691.3127,4 -4,4"/>
<!-- User -->
<g id="node1" class="node">
<title>User</title>
<polygon fill="#ffffe0" stroke="#ffffe0" points="75.078,-141.0197 -.026,-141.0197 -.026,-99.8159 75.078,-99.8159 75.078,-141.0197"/>
<text text-anchor="middle" x="37.526" y="-124.6178" font-family="Times,serif" font-size="14.00" fill="#000000">User</text>
<text text-anchor="middle" x="37.526" y="-107.8178" font-family="Times,serif" font-size="14.00" fill="#000000">(Interface)</text>
</g>
<!-- JobMgmt -->
<g id="node2" class="node">
<title>JobMgmt</title>
<polygon fill="#ffffe0" stroke="#ffffe0" points="359.5518,-261.0197 247.4942,-261.0197 247.4942,-219.8159 359.5518,-219.8159 359.5518,-261.0197"/>
<text text-anchor="middle" x="303.523" y="-244.6178" font-family="Times,serif" font-size="14.00" fill="#000000">Job Management</text>
<text text-anchor="middle" x="303.523" y="-227.8178" font-family="Times,serif" font-size="14.00" fill="#000000">(Process)</text>
</g>
<!-- User&#45;&gt;JobMgmt -->
<g id="edge1" class="edge">
<title>User-&gt;JobMgmt</title>
<path fill="none" stroke="#0000ff" d="M50.3384,-141.2571C60.2754,-155.7168 75.3187,-174.3067 93.052,-185.4178 136.698,-212.7647 193.5718,-226.5836 237.1935,-233.527"/>
<polygon fill="#0000ff" stroke="#0000ff" points="236.7231,-236.9956 247.1335,-235.0276 237.768,-230.074 236.7231,-236.9956"/>
<text text-anchor="middle" x="149.6169" y="-230.6178" font-family="Times,serif" font-size="14.00" fill="#000000">Browse/Search Jobs</text>
</g>
<!-- AppMgmt -->
<g id="node3" class="node">
<title>AppMgmt</title>
<polygon fill="#ffffe0" stroke="#ffffe0" points="382.7057,-201.0197 224.3403,-201.0197 224.3403,-159.8159 382.7057,-159.8159 382.7057,-201.0197"/>
<text text-anchor="middle" x="303.523" y="-184.6178" font-family="Times,serif" font-size="14.00" fill="#000000">Application Management</text>
<text text-anchor="middle" x="303.523" y="-167.8178" font-family="Times,serif" font-size="14.00" fill="#000000">(Process)</text>
</g>
<!-- User&#45;&gt;AppMgmt -->
<g id="edge4" class="edge">
<title>User-&gt;AppMgmt</title>
<path fill="none" stroke="#0000ff" d="M75.1592,-135.6792C81.0891,-137.7845 87.1955,-139.7818 93.052,-141.4178 132.3147,-152.3854 176.5749,-161.1148 214.3403,-167.5102"/>
<polygon fill="#0000ff" stroke="#0000ff" points="213.8618,-170.9786 224.3008,-169.1687 215.0116,-164.0737 213.8618,-170.9786"/>
<text text-anchor="middle" x="149.6169" y="-168.6178" font-family="Times,serif" font-size="14.00" fill="#000000">Submit Application</text>
</g>
<!-- CodingPlatform -->
<g id="node4" class="node">
<title>CodingPlatform</title>
<polygon fill="#ffffe0" stroke="#ffffe0" points="358.2408,-141.0197 248.8052,-141.0197 248.8052,-99.8159 358.2408,-99.8159 358.2408,-141.0197"/>
<text text-anchor="middle" x="303.523" y="-124.6178" font-family="Times,serif" font-size="14.00" fill="#000000">Coding Platform</text>
<text text-anchor="middle" x="303.523" y="-107.8178" font-family="Times,serif" font-size="14.00" fill="#000000">(Process)</text>
</g>
<!-- User&#45;&gt;CodingPlatform -->
<g id="edge6" class="edge">
<title>User-&gt;CodingPlatform</title>
<path fill="none" stroke="#0000ff" d="M75.0727,-120.4178C117.4979,-120.4178 187.3112,-120.4178 238.6146,-120.4178"/>
<polygon fill="#0000ff" stroke="#0000ff" points="238.615,-123.9179 248.6149,-120.4178 238.6149,-116.9179 238.615,-123.9179"/>
<text text-anchor="middle" x="149.6169" y="-124.6178" font-family="Times,serif" font-size="14.00" fill="#000000">Start Coding Test</text>
</g>
<!-- DataContribution -->
<g id="node5" class="node">
<title>DataContribution</title>
<polygon fill="#ffffe0" stroke="#ffffe0" points="362.51,-81.0197 244.536,-81.0197 244.536,-39.8159 362.51,-39.8159 362.51,-81.0197"/>
<text text-anchor="middle" x="303.523" y="-64.6178" font-family="Times,serif" font-size="14.00" fill="#000000">Data Contribution</text>
<text text-anchor="middle" x="303.523" y="-47.8178" font-family="Times,serif" font-size="14.00" fill="#000000">(Process)</text>
</g>
<!-- User&#45;&gt;DataContribution -->
<g id="edge8" class="edge">
<title>User-&gt;DataContribution</title>
<path fill="none" stroke="#0000ff" d="M75.1683,-105.3142C81.097,-103.2274 87.2006,-101.2452 93.052,-99.6178 139.5315,-86.6901 192.9849,-76.7945 234.3918,-70.1796"/>
<polygon fill="#0000ff" stroke="#0000ff" points="235.0423,-73.6204 244.3777,-68.6104 233.9556,-66.7052 235.0423,-73.6204"/>
<text text-anchor="middle" x="149.6169" y="-103.6178" font-family="Times,serif" font-size="14.00" fill="#000000">Contribute Data</text>
</g>
<!-- Database -->
<g id="node6" class="node">
<title>Database</title>
<ellipse fill="#ffffe0" stroke="#ffffe0" cx="627.3528" cy="-120.4178" rx="59.9197" ry="29.3315"/>
<text text-anchor="middle" x="627.3528" y="-124.6178" font-family="Times,serif" font-size="14.00" fill="#000000">Database</text>
<text text-anchor="middle" x="627.3528" y="-107.8178" font-family="Times,serif" font-size="14.00" fill="#000000">(Data Store)</text>
</g>
<!-- JobMgmt&#45;&gt;Database -->
<g id="edge2" class="edge">
<title>JobMgmt-&gt;Database</title>
<path fill="none" stroke="#0000ff" d="M359.8332,-236.2412C411.4312,-230.6104 488.7796,-217.5335 549.393,-187.4178 566.0933,-179.1202 582.1488,-166.4338 595.3036,-154.3238"/>
<polygon fill="#0000ff" stroke="#0000ff" points="597.8591,-156.7237 602.6968,-147.2977 593.0369,-151.6495 597.8591,-156.7237"/>
<text text-anchor="middle" x="475.1286" y="-234.6178" font-family="Times,serif" font-size="14.00" fill="#000000">Fetch Jobs</text>
</g>
<!-- AppMgmt&#45;&gt;Database -->
<g id="edge5" class="edge">
<title>AppMgmt-&gt;Database</title>
<path fill="none" stroke="#0000ff" d="M382.8097,-170.0141C431.1779,-163.1298 494.1276,-153.2097 549.393,-141.4178 554.4887,-140.3305 559.7483,-139.1162 565.0167,-137.8347"/>
<polygon fill="#0000ff" stroke="#0000ff" points="566.2692,-141.1292 575.1184,-135.3032 564.5675,-134.3391 566.2692,-141.1292"/>
<text text-anchor="middle" x="475.1286" y="-170.6178" font-family="Times,serif" font-size="14.00" fill="#000000">Save Application</text>
</g>
<!-- CodingPlatform&#45;&gt;Database -->
<g id="edge7" class="edge">
<title>CodingPlatform-&gt;Database</title>
<path fill="none" stroke="#0000ff" d="M358.4563,-120.4178C413.2128,-120.4178 497.5155,-120.4178 557.1089,-120.4178"/>
<polygon fill="#0000ff" stroke="#0000ff" points="557.193,-123.9179 567.193,-120.4178 557.1929,-116.9179 557.193,-123.9179"/>
<text text-anchor="middle" x="475.1286" y="-124.6178" font-family="Times,serif" font-size="14.00" fill="#000000">Fetch &amp; Save Test Results</text>
</g>
<!-- DataContribution&#45;&gt;Database -->
<g id="edge9" class="edge">
<title>DataContribution-&gt;Database</title>
<path fill="none" stroke="#0000ff" d="M362.4559,-68.0816C412.4599,-74.9972 485.9722,-86.1388 549.393,-99.6178 554.4863,-100.7003 559.7442,-101.9069 565.0115,-103.1789"/>
<polygon fill="#0000ff" stroke="#0000ff" points="564.5625,-106.6738 575.1115,-105.69 566.2515,-99.8806 564.5625,-106.6738"/>
<text text-anchor="middle" x="475.1286" y="-103.6178" font-family="Times,serif" font-size="14.00" fill="#000000">Save Data</text>
</g>
<!-- Database&#45;&gt;User -->
<g id="edge3" class="edge">
<title>Database-&gt;User</title>
<path fill="none" stroke="#0000ff" d="M593.9301,-95.8495C580.5359,-86.7351 564.6749,-76.8245 549.393,-69.4178 417.426,-5.4563 367.684,16.6061 224.1818,-13.6178 161.8587,-26.744 146.7038,-37.0964 93.052,-71.4178 83.4333,-77.5709 73.8056,-85.3521 65.3329,-92.8913"/>
<polygon fill="#0000ff" stroke="#0000ff" points="62.918,-90.3568 57.9098,-99.6932 67.6472,-95.5178 62.918,-90.3568"/>
<text text-anchor="middle" x="303.523" y="-18.6178" font-family="Times,serif" font-size="14.00" fill="#000000">Display Jobs</text>
</g>
</g>
</svg>