<?xml version="1.0" encoding="UTF-8" standalone="no"?>
<svg
   xmlns:dc="http://purl.org/dc/elements/1.1/"
   xmlns:cc="http://creativecommons.org/ns#"
   xmlns:rdf="http://www.w3.org/1999/02/22-rdf-syntax-ns#"
   xmlns:svg="http://www.w3.org/2000/svg"
   xmlns="http://www.w3.org/2000/svg"
   viewBox="0 0 4000 2666.6667"
   height="2666.6667"
   width="4000"
   xml:space="preserve"
   id="svg2"
   version="1.1"><metadata
     id="metadata8"><rdf:RDF><cc:Work
         rdf:about=""><dc:format>image/svg+xml</dc:format><dc:type
           rdf:resource="http://purl.org/dc/dcmitype/StillImage" /></cc:Work></rdf:RDF></metadata><defs
     id="defs6"><clipPath
       id="clipPath130"
       clipPathUnits="userSpaceOnUse"><path
         id="path128"
         d="m 8239.74,4992.5 h 13288.6 v 7871.16 H 8239.74 Z" /></clipPath></defs><g
     transform="matrix(1.3333333,0,0,-1.3333333,0,2666.6667)"
     id="g10"><g
       transform="scale(0.1)"
       id="g12"><g
         transform="scale(1.84049)"
         id="g14"><path
           id="path16"
           style="fill:#ffffff;fill-opacity:1;fill-rule:nonzero;stroke:none"
           d="M 16300,0 H 0 V 10866.7 H 16300 V 0" /></g><g
         transform="scale(1.48112)"
         id="g18"><path
           id="path20"
           style="fill:#f5f5ff;fill-opacity:1;fill-rule:nonzero;stroke:none"
           d="m 14870.2,7893.95 c -1.8,0 -3.7,0.01 -5.5,0.01 v 1246.09 h -1412.6 c -7.8,60.17 -11.8,121.46 -11.8,183.73 0,789.72 640.2,1429.82 1429.9,1429.82 789.7,0 1429.8,-640.1 1429.8,-1429.82 0,-789.67 -640.1,-1429.83 -1429.8,-1429.83" /></g><g
         transform="scale(1.54772)"
         id="g22"><path
           id="path24"
           style="fill:#9192ff;fill-opacity:1;fill-rule:nonzero;stroke:none"
           d="m 6906.59,8316.74 -0.25,20.04 c 44.58,0.55 89.22,0.6 133.87,0.06 l -0.26,-20.04 c -44.52,0.54 -88.9,0.52 -133.36,-0.06 m 399.82,-9.58 c -44.39,2.66 -88.78,4.82 -133.17,6.44 l 0.71,20.01 c 44.58,-1.62 89.1,-3.78 133.68,-6.47 l -1.22,-19.98 m -666.21,-0.54 -1.29,19.98 c 44.32,2.83 89.29,5.12 133.68,6.8 l 0.78,-20.02 c -44.26,-1.68 -89.04,-3.97 -133.17,-6.76 m 931.89,-21.84 c -44.13,4.76 -88.39,9.02 -132.71,12.75 l 1.67,19.97 c 44.46,-3.74 88.84,-8.02 133.23,-12.8 l -2.19,-19.92 m -1197.41,-2.07 -2.32,19.91 c 44.1,5.13 88.87,9.75 133.13,13.74 l 1.81,-19.97 c -44.07,-3.95 -88.71,-8.56 -132.62,-13.68 m 1461.86,-32.67 c -43.94,6.79 -87.94,13.1 -132,18.89 l 2.58,19.87 c 44.26,-5.82 88.39,-12.14 132.46,-18.95 l -3.04,-19.81 m -1725.7,-5.32 -3.41,19.73 c 43.62,7.51 88.09,14.53 132.21,20.89 l 2.86,-19.84 c -43.93,-6.32 -88.24,-13.31 -131.66,-20.78 m 1988.21,-41.43 c -43.55,8.77 -87.22,17.05 -130.96,24.85 l 3.49,19.73 c 43.93,-7.82 87.74,-16.15 131.48,-24.94 l -4.01,-19.64 m -2249.53,-11.09 -4.49,19.52 c 42.99,9.91 87,19.42 130.85,28.21 l 3.93,-19.63 c -43.64,-8.77 -87.47,-18.22 -130.29,-28.1 m 2509.79,-47.39 c -43.16,10.7 -86.39,20.93 -129.81,30.68 l 4.4,19.56 c 43.54,-9.79 86.96,-20.06 130.25,-30.8 l -4.84,-19.44 m -2767.68,-19.96 -5.63,19.23 c 42.43,12.42 85.84,24.43 129,35.71 l 5.08,-19.38 c -42.99,-11.24 -86.2,-23.2 -128.45,-35.56 m 3025.02,-50.01 c -42.58,12.58 -85.35,24.72 -128.31,36.4 l 5.23,19.34 c 43.09,-11.73 86,-23.9 128.77,-36.54 l -5.69,-19.2 m -3278.46,-32.45 -6.76,18.85 c 41.74,15 84.36,29.58 126.66,43.34 l 6.21,-19.06 c -42.11,-13.7 -84.54,-28.21 -126.11,-43.13 m 3532.45,-48.84 c -24.75,8.55 -49.62,16.93 -74.56,25.14 -17.26,5.71 -34.63,11.35 -51.95,16.9 l 6.07,19.08 c 17.45,-5.58 34.83,-11.22 52.21,-16.95 24.94,-8.24 49.88,-16.65 74.82,-25.24 l -6.59,-18.93 m -3780.06,-49.43 -8.05,18.35 c 40.66,17.86 82.23,35.22 123.58,51.6 l 7.38,-18.62 c -41.11,-16.29 -82.47,-33.56 -122.91,-51.33 m 4030.17,-43.08 c -41.35,16.39 -82.83,32.27 -124.51,47.66 l 6.91,18.81 c 41.81,-15.47 83.48,-31.41 124.96,-47.84 l -7.36,-18.63 m -4269.64,-73.19 -9.44,17.66 c 39.01,20.84 79.15,41.28 119.32,60.78 l 8.76,-18.02 c -39.94,-19.38 -79.86,-39.71 -118.64,-60.42 m 4515.22,-30.69 c -40.51,18.26 -81.21,36.04 -122.17,53.35 l 7.81,18.45 c 41.1,-17.36 81.93,-35.22 122.63,-53.53 l -8.27,-18.27 m -4744.96,-103.79 -10.81,16.88 c 37.52,23.99 75.95,47.51 114.24,69.9 l 10.11,-17.29 c -38.06,-22.26 -76.26,-45.63 -113.54,-69.49 m 4985.44,-11.46 c -39.6,20.18 -79.47,39.87 -119.53,59.07 l 8.66,18.07 c 40.25,-19.29 80.25,-39.04 119.99,-59.29 l -9.12,-17.85 m 234.61,-126.78 c -38.57,22.09 -77.41,43.71 -116.56,64.84 l 9.56,17.62 c 39.29,-21.21 78.25,-42.9 116.95,-65.08 l -9.95,-17.38 m -5438.37,-14.06 -12.11,15.94 c 35.55,27.01 71.98,53.52 108.27,78.82 l 11.46,-16.43 c -36.07,-25.15 -72.27,-51.51 -107.62,-78.33 m 5666.15,-124.36 c -37,23.83 -75.04,47.6 -112.97,70.67 l 10.41,17.12 c 38.16,-23.15 76.26,-47.02 113.46,-70.93 l -10.9,-16.86 m -5871.37,-45.17 -13.37,14.91 c 33.08,29.68 67.22,59.09 101.51,87.39 l 12.74,-15.44 c -34.05,-28.14 -68,-57.36 -100.88,-86.86 m 6091.77,-104.97 c -35.5,25.56 -72.2,51.32 -109.2,76.55 l 11.3,16.55 c 37.1,-25.32 74,-51.18 109.6,-76.85 l -11.7,-16.25 m -6282.41,-80.78 -14.56,13.76 c 30.7,32.48 62.33,64.58 94,95.43 l 13.99,-14.37 c -31.49,-30.64 -62.91,-62.55 -93.43,-94.82 m 6492.21,-83.17 c -34.9,29.58 -69.7,57.88 -103.2,84.12 l 12.3,15.77 c 33.7,-26.39 68.7,-54.85 103.8,-84.6 l -12.9,-15.29 m -6666.58,-117.21 -15.65,12.52 c 27.77,34.67 56.59,69.2 85.69,102.63 l 15.11,-13.15 c -28.92,-33.23 -57.57,-67.55 -85.15,-102 m 6865.58,-60.35 c -32.6,30.29 -65.4,60.35 -98.5,89.99 l 13.4,14.93 c 33.2,-29.73 66.1,-59.87 98.7,-90.25 l -13.6,-14.67 m -7023.11,-153.79 -16.6,11.21 c 24.83,36.82 50.76,73.62 77.05,109.36 l 16.15,-11.87 c -26.13,-35.53 -51.9,-72.1 -76.6,-108.7 m 7217.01,-29.8 -96.8,92.11 13.8,14.53 96.8,-92.12 -13.8,-14.52 m 195.6,-182.38 c -33.1,29.86 -65.8,60.11 -98.4,90.58 l 13.6,14.64 c 32.5,-30.4 65.2,-60.57 98.2,-90.35 l -13.4,-14.87 m -7552.32,-14.17 -17.46,9.82 c 21.76,38.65 44.63,77.44 67.99,115.31 l 17.06,-10.52 c -23.23,-37.63 -45.97,-76.2 -67.59,-114.61 m 7756.02,-159.54 c -33.5,26.68 -68.3,55.37 -103.3,85.26 l 13.1,15.22 c 34.8,-29.73 69.3,-58.29 102.7,-84.78 l -12.5,-15.7 m -7877.21,-77.41 -18.2,8.4 c 18.73,40.51 38.45,81.02 58.61,120.44 l 17.84,-9.18 c -20.04,-39.09 -39.64,-79.41 -58.25,-119.66 M 11509,6228.82 c -36.4,23.46 -73.6,48.85 -110.6,75.6 l 11.7,16.28 c 36.7,-26.55 73.7,-51.75 109.8,-75.01 l -10.9,-16.87 m 233.9,-130.83 c -40.2,19.44 -80.2,40.25 -118.9,61.83 l 9.8,17.51 c 38.3,-21.39 78,-42.06 117.8,-61.32 l -8.7,-18.02 m -8430.68,-35.93 -18.78,6.98 c 15.41,41.55 31.88,83.54 48.97,124.64 l 18.5,-7.63 c -16.99,-40.96 -33.37,-82.64 -48.69,-123.99 m 8678.28,-66.93 c -42.3,14.99 -84.5,31.14 -125.3,48.07 l 7.7,18.48 c 40.5,-16.74 82.3,-32.83 124.3,-47.69 l -6.7,-18.86 m 256.7,-77.02 c -44.1,11.11 -87.5,23 -129.1,35.47 l 5.7,19.19 c 41.4,-12.34 84.5,-24.23 128.3,-35.21 l -4.9,-19.45 m 261.9,-55.05 c -44.3,7.62 -88.5,16.09 -131.4,25.07 l 4.1,19.64 c 42.7,-8.98 86.7,-17.38 130.7,-25 l -3.4,-19.71 m 264.6,-38.38 c -44.3,5.3 -88.5,11.05 -132.6,17.45 l 2.9,19.83 c 43.9,-6.33 87.9,-12.08 132.1,-17.38 l -2.4,-19.9 m -9544.27,-15.83 -19.27,5.49 c 12.22,42.97 25.42,86.07 39.19,128.13 l 19.05,-6.21 c -13.7,-41.86 -26.81,-84.7 -38.97,-127.41 m 9810.27,-11.05 c -44.5,3.82 -88.9,7.89 -133.1,12.34 l 2,19.97 c 44.2,-4.46 88.4,-8.53 132.7,-12.34 l -1.6,-19.97 m 266.4,-20.67 c -44.5,3.16 -88.9,6.46 -133.3,9.82 l 1.6,20.03 c 44.3,-3.43 88.7,-6.66 133.1,-9.89 l -1.4,-19.96 m 266.4,-19.58 c -44.4,3.43 -88.8,6.72 -133.2,9.95 l 1.5,20.03 c 44.4,-3.23 88.9,-6.52 133.3,-9.95 l -1.6,-20.03 m 266.1,-23.39 c -44.3,4.52 -88.6,8.66 -132.9,12.54 l 1.7,19.9 c 44.5,-3.88 88.9,-8.02 133.2,-12.47 l -2,-19.97 m 264.9,-32.37 c -44,6.46 -88.1,12.28 -132.3,17.64 l 2.4,19.9 c 44.4,-5.36 88.7,-11.24 132.7,-17.7 l -2.8,-19.84 m 262.4,-46.39 c -42,8.92 -86,17.45 -130.7,25.33 l 3.4,19.7 c 45,-7.94 89.2,-16.47 131.5,-25.39 l -4.2,-19.64 m 257.9,-65.39 c -41.3,12.41 -84.5,24.36 -128.2,35.41 l 4.9,19.39 c 44,-11.12 87.4,-23.07 129,-35.61 l -5.7,-19.19 m -11457.66,-40.05 -19.63,4 c 8.93,43.61 18.82,87.61 29.37,130.77 l 19.46,-4.71 c -10.49,-42.97 -20.33,-86.71 -29.2,-130.06 m 11707.96,-48.72 c -40.3,16.67 -82,32.69 -124.1,47.55 l 6.6,18.93 c 42.5,-15.05 84.6,-31.14 125.2,-47.94 l -7.7,-18.54 m 239.7,-114.94 c -38.4,21.12 -78.2,41.54 -118.3,60.73 l 8.7,18.09 c 40.3,-19.38 80.5,-39.99 119.2,-61.25 l -9.6,-17.57 m -11991.4,-99.38 -19.86,2.59 c 5.69,44.39 12.27,89.03 19.53,132.64 l 19.77,-3.29 c -7.23,-43.42 -13.77,-87.74 -19.44,-131.94 m 12216.8,-41.54 c -36,25.46 -73.2,50.27 -110.7,73.66 l 10.6,16.99 c 37.8,-23.65 75.4,-48.65 111.6,-74.24 l -11.5,-16.41 m 207.2,-166.24 c -32.7,29.65 -66.7,58.66 -101.1,86.25 l 12.5,15.64 c 34.8,-27.85 69.1,-57.12 102.1,-87.03 l -13.5,-14.86 m -12448.22,-57.77 -20.01,1.1 c 2.42,44.39 5.71,89.42 9.74,133.75 l 19.97,-1.81 c -4.03,-44.13 -7.28,-88.84 -9.7,-133.04 M 15732.1,4889.11 c -28.7,33.28 -59,66.23 -89.9,97.89 l 14.3,13.96 c 31.2,-31.92 61.7,-65.13 90.8,-98.79 l -15.2,-13.06 M 3073.29,4754.33 c -0.39,22.1 -0.58,44.2 -0.6,66.3 0,22.61 0.21,45.22 0.62,67.84 l 20.04,-0.39 c -0.41,-22.48 -0.62,-44.97 -0.62,-67.45 0.02,-21.97 0.21,-43.94 0.6,-65.91 l -20.04,-0.39 m 12819.91,-76.69 c -24.4,36.44 -50.4,72.88 -77.3,108.16 l 15.9,12.15 c 27.2,-35.6 53.4,-72.36 78.1,-109.2 l -16.7,-11.11 M 3087.59,4486.91 c -3.95,44.32 -7.16,89.29 -9.53,133.55 l 20.01,1.1 c 2.35,-44.07 5.54,-88.78 9.48,-132.91 l -19.96,-1.74 m 12939.71,-38.7 c -20,39.48 -41.4,78.76 -63.6,116.69 l 17.3,10.14 c 22.4,-38.31 44,-77.92 64.2,-117.78 l -17.9,-9.05 M 3120.76,4221.1 c -7.09,44.2 -13.46,88.78 -18.91,132.58 l 19.88,2.46 c 5.43,-43.55 11.75,-87.94 18.82,-131.87 l -19.79,-3.17 m 13012.54,-16.67 c -15.1,41.29 -31.7,82.77 -49.4,123.41 l 18.4,8.01 c 17.8,-41.03 34.6,-82.89 49.9,-124.51 l -18.9,-6.91 M 3172.47,3958.26 c -10.13,43.42 -19.58,87.49 -28.14,130.97 l 19.67,3.88 c 8.5,-43.29 17.92,-87.1 27.97,-130.26 l -19.5,-4.59 m 13038.13,-8.2 c -10.4,43.03 -22.2,86.19 -35,128.31 l 19.1,5.76 c 13,-42.39 24.9,-85.94 35.5,-129.29 l -19.6,-4.78 M 3242.24,3699.69 c -13.05,42.45 -25.54,85.81 -37.12,128.71 l 19.33,5.23 c 11.54,-42.71 23.95,-85.8 36.94,-128.06 l -19.15,-5.88 m 13017.16,-10.92 c -5.8,43.87 -12.8,88.07 -20.8,131.36 l 19.6,3.68 c 8.1,-43.68 15.2,-88.2 21,-132.45 l -19.8,-2.59 M 3329.61,3446.54 c -16.01,41.68 -31.43,84 -45.85,125.87 l 18.96,6.46 c 14.33,-41.55 29.67,-83.67 45.6,-125.15 l -18.71,-7.18 M 16280,3423.74 c -1.1,44.19 -3.5,88.9 -6.9,132.77 l 20,1.55 c 3.4,-44.26 5.7,-89.22 6.9,-133.81 l -20,-0.51 M 3434,3199.86 c -18.7,40.32 -36.96,81.54 -54.29,122.44 l 18.45,7.82 c 17.24,-40.71 35.41,-81.74 54.01,-121.86 l -18.17,-8.4 m 12859.3,-43.48 -20,1.48 c 3.3,44.26 5.6,88.97 6.7,132.84 l 20,-0.51 c -1.1,-44.2 -3.4,-89.23 -6.7,-133.81 M 3554.7,2960.74 c -9.16,16.79 -18.21,33.66 -27.16,50.58 -11.97,22.62 -23.68,45.23 -35.17,67.97 l 17.89,9.05 c 11.42,-22.61 23.08,-45.16 34.98,-67.65 8.92,-16.86 17.95,-33.66 27.05,-50.39 l -17.59,-9.56 m 12705.2,-70.3 -19.8,3.49 c 7.7,43.8 14.4,88.06 19.8,131.55 l 19.9,-2.46 c -5.5,-43.87 -12.2,-88.45 -19.9,-132.58 M 3689.36,2729.49 c -23.36,37.67 -46.56,76.24 -68.95,114.69 l 17.31,10.08 c 22.29,-38.26 45.4,-76.7 68.68,-114.24 l -17.04,-10.53 m 12511.44,-100.27 -19.3,5.29 c 11.8,42.58 22.7,85.94 32.4,129.03 l 19.6,-4.46 c -9.8,-43.35 -20.8,-87.03 -32.7,-129.86 M 3836.53,2505.87 c -25.54,36.64 -50.8,73.92 -75.08,110.81 l 16.73,10.98 c 24.19,-36.69 49.36,-73.84 74.78,-110.29 l -16.43,-11.5 m 12280.67,-131.22 -18.8,7.17 c 15.9,41.61 30.9,83.8 44.6,125.35 l 19,-6.27 c -13.8,-41.81 -28.8,-84.32 -44.8,-126.25 M 3995.26,2290.46 c -27.11,34.89 -54.28,70.81 -80.76,106.67 l 16.14,11.96 c 26.36,-35.8 53.44,-71.59 80.44,-106.35 l -15.82,-12.28 m 12014.54,-161.2 -17.9,8.85 c 19.6,39.6 38.5,80.25 56.1,120.63 l 18.4,-8.02 c -17.8,-40.7 -36.8,-81.53 -56.6,-121.46 M 4164.6,2083.19 c -29.08,33.85 -57.73,68.03 -85.95,102.6 l 15.52,12.66 c 28.12,-34.37 56.67,-68.48 85.62,-102.15 l -15.19,-13.11 m 11715.6,-188.41 -17.2,10.47 c 9.9,16.09 19.6,32.24 29.2,48.52 13,22.03 25.6,44.2 38,66.49 l 17.5,-9.69 c -12.4,-22.49 -25.2,-44.78 -38.3,-66.94 -9.6,-16.35 -19.4,-32.63 -29.2,-48.85 M 4343.59,1884.32 c -30.61,32.43 -60.82,65.25 -90.64,98.4 l 14.88,13.44 c 29.73,-33.02 59.85,-65.78 90.34,-98.15 l -14.58,-13.69 m 187.72,-190.74 c -31.99,31.14 -63.62,62.55 -94.89,94.34 l 14.28,14.08 c 31.17,-31.66 62.71,-62.99 94.59,-94.01 l -13.98,-14.41 m 11201.09,-22.16 -16.4,11.7 c 25.6,35.73 51,72.62 75.6,109.71 l 16.7,-11.05 c -24.7,-37.28 -50.3,-74.43 -75.9,-110.36 M 4726.92,1511.06 c -33.25,29.78 -66.17,59.83 -98.75,90.26 l 13.68,14.67 c 32.48,-30.37 65.3,-60.35 98.44,-90.01 l -13.37,-14.92 m 10842.08,-51.75 -15.5,12.72 c 28.2,34.05 56.2,69.07 83.2,104.09 l 15.9,-12.21 c -27.1,-35.21 -55.3,-70.43 -83.6,-104.6 M 4929.61,1336.42 c -34.35,28.49 -68.41,57.24 -102.19,86.31 l 13.08,15.19 c 33.67,-29.01 67.65,-57.7 101.9,-86.06 l -12.79,-15.44 m 10461.49,-77.21 -14.5,13.82 c 30.5,31.98 60.8,64.94 90.2,97.95 l 15,-13.37 c -29.5,-33.15 -60.1,-66.29 -90.7,-98.4 M 5138.65,1169.46 c -35.34,27.2 -70.42,54.72 -105.27,82.51 l 12.5,15.63 c 34.74,-27.65 69.75,-55.11 104.99,-82.31 l -12.22,-15.83" /></g><g
         transform="scale(1.20536)"
         id="g26"><path
           id="path28"
           style="fill:#9192ff;fill-opacity:1;fill-rule:nonzero;stroke:none"
           d="m 15818.3,14095.3 c -251.4,0 -455.9,-204.5 -455.9,-455.9 0,-251.4 204.5,-456 455.9,-456 251.4,0 456,204.6 456,456 0,251.4 -204.6,455.9 -456,455.9 z m 0,-937.6 c -265.5,0 -481.7,216.1 -481.7,481.7 0,265.6 216.2,481.7 481.7,481.7 265.6,0 481.7,-216.1 481.7,-481.7 0,-265.6 -216.1,-481.7 -481.7,-481.7" /></g><path
         id="path30"
         style="fill:#9192ff;fill-opacity:1;fill-rule:nonzero;stroke:none"
         d="m 5546.09,15832.2 c -303.02,0 -549.57,-246.5 -549.57,-549.5 0,-303.1 246.55,-549.6 549.57,-549.6 303.03,0 549.57,246.5 549.57,549.6 0,303 -246.54,549.5 -549.57,549.5 z m 0,-1130.1 c -320.13,0 -580.58,260.4 -580.58,580.6 0,320.1 260.45,580.5 580.58,580.5 320.14,0 580.59,-260.4 580.59,-580.5 0,-320.2 -260.45,-580.6 -580.59,-580.6" /><g
         transform="scale(1.61377)"
         id="g32"><path
           id="path34"
           style="fill:#9192ff;fill-opacity:1;fill-rule:nonzero;stroke:none"
           d="m 15831.8,6923.46 -6.2,18.23 c 41.6,13.93 85.6,20.17 129.6,18.3 l -0.8,-19.2 c -41.6,1.69 -83.3,-4.15 -122.6,-17.33 z m 346.3,-79.21 c -29.9,29.25 -64.6,52.48 -102.9,69.03 l 7.7,17.65 c 40.4,-17.5 77,-42.03 108.6,-72.93 z m -534.3,-75.82 -16.6,9.48 c 21.8,38.35 50.1,72.06 84.1,100.18 l 12.3,-14.82 c -32.3,-26.63 -59.1,-58.54 -79.8,-94.84 z m 636.2,-145.4 c -2.7,41.82 -12.9,82.2 -30.4,120.05 l 17.4,8.06 c 18.5,-40 29.3,-82.68 32.2,-126.85 z m -691.3,-99.58 c -5.5,25.16 -8.3,51.1 -8.3,77.08 0,17.91 1.4,35.97 4,53.67 l 19,-2.84 c -2.4,-16.76 -3.7,-33.86 -3.7,-50.83 0,-24.6 2.6,-49.16 7.8,-72.99 z m 687.6,-51.64 -18,6.88 c 14.9,38.83 22.5,79.82 22.5,121.84 h 19.2 c 0,-44.38 -8,-87.69 -23.7,-128.72 z m -546.2,-163.37 c -35.8,25.8 -66.3,57.59 -90.5,94.44 l 16,10.57 c 23,-34.9 51.8,-64.99 85.8,-89.42 z m 374.3,-28.15 -8.8,17.09 c 37.1,19.06 70.1,44.52 98.1,75.67 l 14.3,-12.86 c -29.6,-32.89 -64.5,-59.77 -103.6,-79.9 z m -164.2,-39.54 c -31.1,0 -61.9,3.98 -91.7,11.81 l 4.8,18.59 c 40,-10.49 82.5,-13.6 123.6,-9.24 l 2.1,-19.09 c -12.8,-1.37 -25.8,-2.07 -38.8,-2.07" /></g><path
         id="path36"
         style="fill:#9192ff;fill-opacity:1;fill-rule:nonzero;stroke:none"
         d="m 9317.78,15862.2 -84.07,84.1 84.07,84 21.91,-21.9 -62.11,-62.1 62.11,-62.2 -21.91,-21.9" /><path
         id="path38"
         style="fill:#9192ff;fill-opacity:1;fill-rule:nonzero;stroke:none"
         d="m 9588.1,15591.9 -135.15,135.1 21.92,21.9 135.15,-135.1 -21.92,-21.9 m 270.33,-270.4 -135.15,135.2 21.92,21.9 135.15,-135.1 -21.92,-22 m 270.37,-270.3 -135.19,135.2 21.89,21.9 135.2,-135.2 -21.9,-21.9" /><path
         id="path40"
         style="fill:#9192ff;fill-opacity:1;fill-rule:nonzero;stroke:none"
         d="m 10348,14832 -84.1,84.1 21.9,21.9 62.2,-62.2 62.1,62.2 21.9,-21.9 -84,-84.1" /><path
         id="path42"
         style="fill:#9192ff;fill-opacity:1;fill-rule:nonzero;stroke:none"
         d="m 11107.9,15591.9 -21.9,21.9 135.1,135.2 21.9,-21.9 z m -270.4,-270.4 -21.9,22 135.2,135.1 21.9,-21.9 z m -270.3,-270.3 -21.9,21.9 135.1,135.2 22,-21.9 -135.2,-135.2" /><path
         id="path44"
         style="fill:#9192ff;fill-opacity:1;fill-rule:nonzero;stroke:none"
         d="m 11378.2,15862.2 -21.9,21.9 62.1,62.2 -62.1,62.1 21.9,21.9 84.1,-84 -84.1,-84.1" /><g
         transform="scale(1.03321)"
         id="g46"><path
           id="path48"
           style="fill:#9192ff;fill-opacity:1;fill-rule:nonzero;stroke:none"
           d="m 10337.1,16148 -130.7,130.8 21.2,21.2 130.8,-130.8 z m 261.7,-261.7 -130.8,130.8 21.2,21.3 130.8,-130.9 z m 261.6,-261.6 -130.7,130.8 21.2,21.2 130.7,-130.8 -21.2,-21.2" /></g><g
         transform="scale(1.04666)"
         id="g50"><path
           id="path52"
           style="fill:#9192ff;fill-opacity:1;fill-rule:nonzero;stroke:none"
           d="m 9827.28,16198.7 -20.93,21 80.35,80.3 80.26,-80.3 -20.92,-21 -59.34,59.4 -59.42,-59.4" /></g><g
         transform="scale(1.03321)"
         id="g54"><path
           id="path56"
           style="fill:#9192ff;fill-opacity:1;fill-rule:nonzero;stroke:none"
           d="m 9693.6,16148 -21.21,21.2 130.87,130.8 21.19,-21.2 -130.85,-130.8 m -261.64,-261.7 -21.21,21.2 130.82,130.8 21.22,-21.1 -130.83,-130.9 m -261.65,-261.6 -21.2,21.2 130.82,130.8 21.22,-21.2 -130.84,-130.8" /></g><g
         transform="scale(1.50606)"
         id="g58"><path
           id="path60"
           style="fill:#9192ff;fill-opacity:1;fill-rule:nonzero;stroke:none"
           d="m 15334.6,9929.13 468.1,-468.17 468.2,468.17 -468.2,468.17 z m 468.1,-497.3 -497.2,497.3 497.2,497.27 497.3,-497.27 -497.3,-497.3" /></g><g
         transform="scale(1.67521)"
         id="g62"><path
           id="path64"
           style="fill:#f5f5ff;fill-opacity:1;fill-rule:nonzero;stroke:none"
           d="m 15429.5,1679.67 v 277.04 h -740.2 c 0,0.05 -0.1,0.11 -0.2,0.17 h 896.8 v 186.13 103.39 H 14910 c 0,0.06 0,0.12 0,0.24 h 675.9 v 289.45 h -590.8 c 0.9,4.36 2,8.72 3,13.02 l -18.1,4.11 c -1.3,-5.67 -2.6,-11.4 -3.9,-17.13 h -555 c -2.3,27.11 -3.5,54.5 -3.5,82.14 0,396.31 244.9,735.43 591.7,874.16 4.7,-28 9,-56.23 12.7,-84.35 l 18.3,2.39 c -3.9,29.61 -8.4,59.33 -13.4,88.82 103.2,38.92 215.1,60.17 331.9,60.17 519.8,0 941.2,-421.38 941.2,-941.19 0,-496 -383.7,-902.39 -870.5,-938.56 m -407,1115.55 c -5,-40.17 -11.2,-81.06 -18.3,-121.53 l 18.2,-3.23 c 7.2,40.77 13.4,81.96 18.5,122.5 l -18.4,2.26 m 18.5,245.05 c -1,-40.54 -3.1,-81.84 -6.2,-122.73 l 18.5,-1.38 c 3.1,41.19 5.2,82.8 6.2,123.63 l -18.5,0.48 m 12.1,247.01 -18.4,-1.43 c 3.1,-40.53 5.3,-81.84 6.3,-122.67 l 18.5,0.47 c -1.1,41.19 -3.2,82.74 -6.4,123.63 M 14890.3,2246.4 h -396.4 c -0.1,0.12 -0.1,0.12 -0.1,0.24 h 396.6 c -0.1,-0.12 -0.1,-0.18 -0.1,-0.24" /></g><g
         transform="scale(1.54772)"
         id="g66"><path
           id="path68"
           style="fill:#b3b3ff;fill-opacity:1;fill-rule:nonzero;stroke:none"
           d="m 16138.1,2431.44 h -21.2 c 0,0.07 0,0.13 0.1,0.26 h 21.2 c 0,-0.13 0,-0.19 -0.1,-0.26 m 92.2,313.56 h -20.6 c 1.5,6.2 2.9,12.4 4.2,18.54 l 19.6,-4.46 c -1.1,-4.65 -2.2,-9.36 -3.2,-14.08 m 29.6,145.44 -19.8,3.49 c 7.7,43.8 14.4,88.06 19.8,131.55 l 19.9,-2.46 c -5.5,-43.87 -12.2,-88.45 -19.9,-132.58 m 33.4,265.94 -20,1.48 c 3.3,44.26 5.6,88.97 6.7,132.84 l 20,-0.51 c -1.1,-44.2 -3.4,-89.23 -6.7,-133.81 m -13.3,267.36 c -1.1,44.19 -3.5,88.9 -6.9,132.77 l 20,1.55 c 3.4,-44.26 5.7,-89.22 6.9,-133.81 l -20,-0.51 m -20.6,265.03 c -4,30.43 -8.6,60.99 -13.7,91.3 6.3,2.58 12.6,5.04 19,7.43 5.4,-31.92 10.3,-64.1 14.5,-96.14 l -19.8,-2.59" /></g><g
         transform="scale(1.10484)"
         id="g70"><path
           id="path72"
           style="fill:#f5f5ff;fill-opacity:1;fill-rule:nonzero;stroke:none"
           d="m 8031.24,13445.8 c -788.17,0 -1427.11,638.9 -1427.11,1427.1 0,788.2 638.94,1427.1 1427.11,1427.1 592.9,0 1101.34,-361.6 1316.85,-876.3 l -58.1,-58.1 19.82,-19.8 49.78,49.7 c 63.72,-161.8 98.75,-338.1 98.75,-522.6 0,-788.2 -638.94,-1427.1 -1427.1,-1427.1 m 789.26,564.1 -19.84,-19.8 122.33,-122.4 19.84,19.9 -122.33,122.3 m -244.68,244.7 -19.84,-19.9 122.33,-122.3 19.84,19.8 -122.33,122.4 m -142.18,254.6 -76.09,-76.1 76.09,-76 19.83,19.8 -56.22,56.2 56.22,56.3 -19.83,19.8 m 244.67,244.7 -122.35,-122.3 19.84,-19.9 122.35,122.4 -19.84,19.8 m 244.68,244.7 -122.35,-122.4 19.84,-19.8 122.35,122.4 -19.84,19.8 m 244.71,244.7 -122.38,-122.4 19.83,-19.8 122.37,122.3 -19.82,19.9" /></g><path
         id="path74"
         style="fill:#b3b3ff;fill-opacity:1;fill-rule:nonzero;stroke:none"
         d="m 9317.78,15862.2 -84.07,84.1 84.07,84 21.91,-21.9 -62.11,-62.1 62.11,-62.2 -21.91,-21.9" /><path
         id="path76"
         style="fill:#b3b3ff;fill-opacity:1;fill-rule:nonzero;stroke:none"
         d="m 9858.43,15321.5 -135.15,135.2 21.92,21.9 135.15,-135.1 -21.92,-22 m -270.33,270.4 -135.15,135.1 21.92,21.9 135.15,-135.1 -21.92,-21.9" /><g
         transform="scale(1.04544)"
         id="g78"><path
           id="path80"
           style="fill:#b3b3ff;fill-opacity:1;fill-rule:nonzero;stroke:none"
           d="m 9838.72,16217.6 -20.95,21 61.41,61.4 c 4.21,-9.9 8.22,-19.8 12.15,-29.8 l -52.61,-52.6" /></g><g
         transform="scale(1.03321)"
         id="g82"><path
           id="path84"
           style="fill:#b3b3ff;fill-opacity:1;fill-rule:nonzero;stroke:none"
           d="m 9170.31,15624.7 -21.2,21.2 130.82,130.8 21.22,-21.2 -130.84,-130.8 m 261.65,261.6 -21.21,21.2 130.82,130.8 21.22,-21.1 -130.83,-130.9 m 261.64,261.7 -21.21,21.2 130.87,130.8 21.19,-21.2 -130.85,-130.8" /></g><g
         transform="scale(1.18496)"
         id="g86"><path
           id="path88"
           style="fill:#e8e8ff;fill-opacity:1;fill-rule:nonzero;stroke:none"
           d="m 16160.4,12053.9 c -77,0 -139.6,62.5 -139.6,139.6 0,77.1 62.6,139.5 139.6,139.5 77.2,0 139.6,-62.4 139.6,-139.5 0,-77.1 -62.4,-139.6 -139.6,-139.6" /></g><g
         transform="scale(1.59675)"
         id="g90"><path
           id="path92"
           style="fill:#e8e8ff;fill-opacity:1;fill-rule:nonzero;stroke:none"
           d="m 16196.4,4573.36 c -57.2,0 -103.6,46.4 -103.6,103.58 0,57.24 46.4,103.59 103.6,103.59 57.3,0 103.6,-46.35 103.6,-103.59 0,-57.18 -46.3,-103.58 -103.6,-103.58" /></g><g
         transform="scale(1.01622)"
         id="g94"><path
           id="path96"
           style="fill:#e8e8ff;fill-opacity:1;fill-rule:nonzero;stroke:none"
           d="m 12320.2,15974.5 c -89.9,0 -162.7,72.9 -162.7,162.7 0,89.9 72.8,162.8 162.7,162.8 89.9,0 162.8,-72.9 162.8,-162.8 0,-89.8 -72.9,-162.7 -162.8,-162.7" /></g><path
         id="path98"
         style="fill:#e8e8ff;fill-opacity:1;fill-rule:nonzero;stroke:none"
         d="m 5766.61,12870.7 c -91.33,0 -165.39,74.1 -165.39,165.4 0,91.3 74.06,165.4 165.39,165.4 91.35,0 165.39,-74.1 165.39,-165.4 0,-91.3 -74.04,-165.4 -165.39,-165.4" /><g
         transform="scale(1.00952)"
         id="g100"><path
           id="path102"
           style="fill:#d1d1ff;fill-opacity:1;fill-rule:nonzero;stroke:none"
           d="M 16300,2317.04 H 13187.2 V 5655.16 H 16300 V 2317.04" /></g><g
         transform="scale(1.00952)"
         id="g104"><path
           id="path106"
           style="fill:#b6b6e3;fill-opacity:1;fill-rule:nonzero;stroke:none"
           d="m 16300,3770 h -3112.8 v 410.69 H 16300 V 3770" /></g><g
         transform="scale(1.09704)"
         id="g108"><path
           id="path110"
           style="fill:#d1d1ff;fill-opacity:1;fill-rule:nonzero;stroke:none"
           d="m 16300,1661.11 h -5465.1 c 0,398.9 323.4,722.31 722.3,722.31 h 4020.5 c 399,0 722.3,-323.41 722.3,-722.31" /></g><path
         id="path112"
         style="fill:#ffffff;fill-opacity:1;fill-rule:nonzero;stroke:none"
         d="m 15593.8,4192.9 c 0,-392 -317.8,-709.8 -709.8,-709.8 -392,0 -709.8,317.8 -709.8,709.8 0,392 317.8,709.8 709.8,709.8 392,0 709.8,-317.8 709.8,-709.8" /><g
         transform="scale(1.35069)"
         id="g114"><path
           id="path116"
           style="fill:#d1d1ff;fill-opacity:1;fill-rule:nonzero;stroke:none"
           d="M 16300,3124.69 H 5739.08 V 10022.6 H 16300 V 3124.69" /></g><path
         id="path118"
         style="fill:#1b1b43;fill-opacity:1;fill-rule:nonzero;stroke:none"
         d="M 14115.4,2594 H 12968 v 20.7 h 1147.4 V 2594" /><g
         transform="scale(1.02769)"
         id="g120"><path
           id="path122"
           style="fill:#1b1b43;fill-opacity:1;fill-rule:nonzero;stroke:none"
           d="m 16300,2524.11 h -1116.5 v 20.15 H 16300 v -20.15" /></g><g
         id="g124"><g
           clip-path="url(#clipPath130)"
           id="g126"><g
             transform="scale(1.32075)"
             id="g132"><path
               id="path134"
               style="fill:#ffffff;fill-opacity:1;fill-rule:nonzero;stroke:none"
               d="M 16300,3780.04 H 6238.66 V 9739.63 H 16300 V 3780.04" /></g><g
             transform="scale(1.29473)"
             id="g136"><path
               id="path138"
               style="fill:#f6f6ff;fill-opacity:1;fill-rule:nonzero;stroke:none"
               d="m 16275.1,3856.02 h -934.6 c -243.8,135.01 -521.7,209.15 -800.4,209.15 -10.7,0 -21.5,-0.08 -32.3,-0.31 -120.5,371.74 -506.7,630.17 -893.4,630.17 -70.5,0 -140.9,-8.57 -209.8,-26.64 -77.6,317.59 -329.7,564.59 -626.6,710.1 l -293.2,1435.82 c 555,-66.34 1174,-183.89 1643.9,-410.27 -2.2,-35.15 3,-70.75 16,-103.5 34.2,-86.12 107.8,-152.15 195.3,-197.18 92.1,-47.43 199.9,-71.6 293.6,-71.6 5.2,0 10.3,0.08 15.4,0.23 172.7,-195.71 262.1,-437.39 225.5,-736.6 25.2,2.08 50.2,3.17 75.3,3.17 406,0 785.8,-272.65 770.2,-570.24 63.9,20.93 131.8,30.51 199.9,30.51 135.4,0 271.8,-37.92 380.1,-100.33 -21.1,-262.52 -29.1,-532.93 -24.9,-802.48 m -1335.7,921.96 c -52.9,0 -95.8,-42.94 -95.8,-95.84 0,-52.91 42.9,-95.78 95.8,-95.78 52.9,0 95.8,42.87 95.8,95.78 0,52.9 -42.9,95.84 -95.8,95.84 m -1266.8,542.9 c -82.3,0 -149,-66.74 -149,-149.07 0,-82.33 66.7,-148.99 149,-148.99 82.3,0 149,66.66 149,148.99 0,82.33 -66.7,149.07 -149,149.07 M 8252.68,3856.02 H 6364.06 v 900.18 c 84.18,30.2 178.74,45.73 273.05,45.73 112.67,0 225.02,-22.17 318.77,-67.89 -55.08,344.78 152.64,705.55 529.42,919.49 247.2,140.42 561.47,214.41 875.13,214.41 164.36,0 328.56,-20.31 482.73,-62.1 -117.56,209.16 -8.73,456.47 191.54,629.48 389.97,336.83 872.85,538.87 1389.3,547.91 13.8,0.23 27.6,0.31 41.3,0.31 74.5,0 148.6,-3.4 222.5,-8.8 l -169.4,-72.61 -253.5,-1442.46 c -31.4,-8.88 -62.6,-18.46 -93.7,-28.88 -407.24,-135.86 -786.31,-428.28 -913.59,-838.25 -85.5,34.83 -177.49,51.75 -269.64,51.75 -185.98,0 -372.66,-68.59 -508.36,-196.26 -159.34,-149.76 -241.91,-374.59 -226.93,-592.01 m 107.98,1315.79 c -52.91,0 -95.77,-42.86 -95.77,-95.77 0,-52.91 42.86,-95.85 95.77,-95.85 52.91,0 95.85,42.94 95.85,95.85 0,52.91 -42.94,95.77 -95.85,95.77 M 9356,5927.64 c -82.33,0 -149.06,-66.73 -149.06,-149.06 0,-82.33 66.73,-148.99 149.06,-148.99 82.34,0 148.99,66.66 148.99,148.99 0,82.33 -66.65,149.06 -148.99,149.06" /></g><g
             transform="scale(1.21852)"
             id="g140"><path
               id="path142"
               style="fill:#e3e3ff;fill-opacity:1;fill-rule:nonzero;stroke:none"
               d="m 16300,4097.2 h -2392.4 l -330.4,1617.7 c 315.5,-154.61 583.4,-417.06 665.8,-754.52 73.2,19.2 148,28.31 223,28.31 410.8,0 821.2,-274.59 949.2,-669.58 11.5,0.24 22.9,0.33 34.3,0.33 296.2,0 591.4,-78.79 850.5,-222.24 m -5692.4,0 H 8768.87 c -15.92,231.02 71.81,469.92 241.11,629.04 144.19,135.66 342.55,208.54 540.17,208.54 97.9,0 195.65,-17.98 286.49,-54.99 135.25,435.61 538.06,746.32 970.76,890.68 33,11.08 66.2,21.25 99.6,30.69 L 10607.6,4097.2" /></g><path
             id="path144"
             style="fill:#fff6e9;fill-opacity:1;fill-rule:nonzero;stroke:none"
             d="m 16164.4,8822.7 c -183.6,22 -362.1,39.7 -530.3,54.2 l -46.5,271 553.6,-211.5 23.2,-113.7" /><g
             transform="scale(1.01497)"
             id="g146"><path
               id="path148"
               style="fill:#fcf3e9;fill-opacity:1;fill-rule:nonzero;stroke:none"
               d="m 16300,6860.99 c -72.8,35.67 -147.8,66.61 -223.8,92.52 -124.9,42.56 -252.6,73.7 -381.8,96.46 l -290.9,1696.01 c 165.7,-14.29 341.6,-31.73 522.5,-53.4 l 374,-1831.59" /></g><path
             id="path150"
             style="fill:#fff6e9;fill-opacity:1;fill-rule:nonzero;stroke:none"
             d="m 14130.5,9002.3 c -97.4,10.9 -194.9,20.8 -292.7,28.1 l 970.2,415.3 140.9,-53.8 -793.3,-234 -25.1,-155.6" /><path
             id="path152"
             style="fill:#fcf3e9;fill-opacity:1;fill-rule:nonzero;stroke:none"
             d="m 13290.3,7068.8 328.2,1867.6 219.3,94 c 97.8,-7.3 195.3,-17.2 292.7,-28.1 l -294.9,-1828.8 c -184.5,-21.4 -366.9,-54.2 -545.3,-104.7 m 689.4,119.3 214.2,269.2 17.2,-253.9 c -77.3,-3.8 -154.5,-8.7 -231.4,-15.3 m 1673.2,4.3 c -130,12.4 -261.1,18.7 -392.3,21.7 l 11.4,505.9 380.9,-527.6 m -985.4,22.4 65.5,209.6 54.6,-208.7 c -40,-0.3 -80,-0.6 -120.1,-0.9" /><g
             transform="scale(1.03967)"
             id="g154"><path
               id="path156"
               style="fill:#f7ede9;fill-opacity:1;fill-rule:nonzero;stroke:none"
               d="m 16300,4802.01 h -3867.7 l 350.9,1997.08 c 171.6,48.57 347,80.12 524.5,100.7 l -32.4,-200.92 171,214.97 c 74,6.34 148.2,11.06 222.6,14.71 l 77.7,-1145.94 361.3,1156.91 c 38.5,0.29 77,0.58 115.5,0.86 l 418.8,-1600.03 36.1,1598.5 c 126.2,-2.89 252.3,-8.95 377.4,-20.88 l 340.6,-471.88 -74.8,436.39 c 126.2,-22.22 250.9,-52.61 372.8,-94.16 74.2,-25.3 147.4,-55.5 218.5,-90.32 L 16300,4802.01" /></g><path
             id="path158"
             style="fill:#ffa121;fill-opacity:1;fill-rule:nonzero;stroke:none"
             d="m 14155.6,9157.9 -353.7,-2193.3 392,492.7 98,-1445.3 441.1,1412.4 490,-1872.2 49,2167.8 735.1,-1018.2 -490.1,2857.7 -1361.4,-401.6" /><path
             id="path160"
             style="fill:#ffc77a;fill-opacity:1;fill-rule:nonzero;stroke:none"
             d="m 15091.5,6899.6 -338.5,1194.8 -304.6,-901.4 -67.7,922.4 -270.7,-314.5 244.3,1399.8 940.3,256.3 338.5,-1823.8 -507.7,649.9 -33.9,-1383.5" /><path
             id="path162"
             style="fill:#e8e8ff;fill-opacity:1;fill-rule:nonzero;stroke:none"
             d="m 10738.1,8223.5 c -37.8,0 -75.9,4.6 -113.4,12.4 -130.2,27 -253.8,92.8 -335.3,141.7 -30.9,18.6 -63.1,44.1 -61.6,87.9 1.2,35.1 24,71.1 47.6,102 147.8,193.7 380.9,335.7 578.6,335.7 8.3,0 16.5,-0.2 24.7,-0.7 213.8,-13.3 349.4,-229.1 188.7,-489.4 -87.4,-141.6 -206.8,-189.6 -329.3,-189.6" /><g
             transform="scale(1.17673)"
             id="g164"><path
               id="path166"
               style="fill:#e8e8ff;fill-opacity:1;fill-rule:nonzero;stroke:none"
               d="m 16118,6636.87 c -144.6,163.92 -342.3,298.45 -572.5,409.35 3.5,56.43 24.3,111.92 60.5,155.43 55.6,66.88 136.7,95.95 219.6,95.95 67,0 135.2,-19.04 192.1,-52.35 156,-91.27 276.9,-266.33 281.4,-449.98 0.9,-34.59 -2.8,-71.13 -22.6,-99.43 -29,-41.21 -84,-54.04 -134.2,-57.7 -8,-0.59 -16.1,-1.02 -24.3,-1.27" /></g><g
             transform="scale(1.16359)"
             id="g168"><path
               id="path170"
               style="fill:#e3e3ff;fill-opacity:1;fill-rule:nonzero;stroke:none"
               d="m 16282.9,6711.56 c -104.3,0 -224.2,26.9 -326.7,79.67 -97.4,50.1 -179.2,123.58 -217.3,219.41 -14.5,36.44 -20.3,76.05 -17.8,115.16 232.7,-112.16 432.7,-248.2 578.9,-413.98 -5.7,-0.17 -11.3,-0.26 -17.1,-0.26" /></g><path
             id="path172"
             style="fill:#e3e3ff;fill-opacity:1;fill-rule:nonzero;stroke:none"
             d="m 12113.5,7288.8 c -106.6,0 -193,86.3 -193,192.9 0,106.6 86.4,193 193,193 106.6,0 192.9,-86.4 192.9,-193 0,-106.6 -86.3,-192.9 -192.9,-192.9" /><g
             transform="scale(1.09787)"
             id="g174"><path
               id="path176"
               style="fill:#e3e3ff;fill-opacity:1;fill-rule:nonzero;stroke:none"
               d="m 16124.2,5923.46 c -97,0 -175.7,78.61 -175.7,175.71 0,97.09 78.7,175.79 175.7,175.79 97.1,0 175.8,-78.7 175.8,-175.79 0,-97.1 -78.7,-175.71 -175.8,-175.71" /></g><g
             transform="scale(1.19426)"
             id="g178"><path
               id="path180"
               style="fill:#e3e3ff;fill-opacity:1;fill-rule:nonzero;stroke:none"
               d="m 16196.2,4972.19 c -57.4,0 -103.9,46.47 -103.9,103.83 0,57.35 46.5,103.91 103.9,103.91 57.3,0 103.8,-46.56 103.8,-103.91 0,-57.36 -46.5,-103.83 -103.8,-103.83" /></g><path
             id="path182"
             style="fill:#e3e3ff;fill-opacity:1;fill-rule:nonzero;stroke:none"
             d="m 10824.8,6448 c -68.5,0 -124,55.6 -124,124.1 0,68.5 55.5,124 124,124 68.5,0 124.1,-55.5 124.1,-124 0,-68.5 -55.6,-124.1 -124.1,-124.1" /></g></g><g
         transform="scale(1.10218)"
         id="g184"><path
           id="path186"
           style="fill:#d1d1ff;fill-opacity:1;fill-rule:nonzero;stroke:none"
           d="m 16300,10347 v 0 c -58.8,-145.6 -186.1,-252.5 -339.7,-285.2 l -1467.2,-311.55 -15.1,894.35 1822,-297.6" /></g><g
         transform="scale(1.10218)"
         id="g188"><path
           id="path190"
           style="fill:#3335cf;fill-opacity:1;fill-rule:nonzero;stroke:none"
           d="m 16300,10347 h -1601.3 v 2283.3 C 15357.1,10765.8 16300,11159.9 16300,10347" /></g><path
         id="path192"
         style="fill:#d1d1ff;fill-opacity:1;fill-rule:nonzero;stroke:none"
         d="m 11802.4,11404.3 v 0 c 64.8,-160.5 205.1,-278.3 374.4,-314.3 l 1617.1,-343.4 16.7,985.7 -2008.2,-328" /><path
         id="path194"
         style="fill:#3335cf;fill-opacity:1;fill-rule:nonzero;stroke:none"
         d="m 11802.4,11404.3 h 1764.9 v 2516.6 c -725.7,-2055 -1764.9,-1620.6 -1764.9,-2516.6" /><g
         transform="scale(1.02318)"
         id="g196"><path
           id="path198"
           style="fill:#c5c5ff;fill-opacity:1;fill-rule:nonzero;stroke:none"
           d="m 15708.4,10013.7 c 591.6,1692.8 441.2,3564.9 -446.6,5123 -16.4,28.5 -32.9,56.9 -49.6,85.3 v 0 h -669.1 -0.7 -669.2 v 0 c -16.7,-28.4 -33.2,-56.8 -49.4,-85.3 -887.8,-1558.1 -1038.2,-3430.2 -446.7,-5123 l 172.1,-492.38 -239.2,-787.35 h 514.3 718.1 0.7 718.1 514.4 l -239.3,787.35 172.1,492.38" /></g><g
         transform="scale(1.02419)"
         id="g200"><path
           id="path202"
           style="fill:#1b1b43;fill-opacity:1;fill-rule:nonzero;stroke:none"
           d="m 13859.6,15207.2 h 668.5 669.1 l -668.8,1092.8 -668.8,-1092.8" /></g><path
         id="path204"
         style="fill:#3335cf;fill-opacity:1;fill-rule:nonzero;stroke:none"
         d="m 13863.3,9741 2032.5,1.1 245.4,-805.7 h -2522.7 l 244.8,804.6" /><path
         id="path206"
         style="fill:#1b1b43;fill-opacity:1;fill-rule:nonzero;stroke:none"
         d="m 14879.8,8407.6 v 0 c -85,0 -154,68.9 -154,154 v 2638.2 c 0,85.1 69,154 154,154 85.1,0 154,-68.9 154,-154 V 8561.6 c 0,-85.1 -68.9,-154 -154,-154" /><path
         id="path208"
         style="fill:#ffffff;fill-opacity:1;fill-rule:nonzero;stroke:none"
         d="m 15587.8,13981.4 c 0,-390.9 -317,-707.9 -708,-707.9 -391,0 -707.9,317 -707.9,707.9 0,391 316.9,708 707.9,708 391,0 708,-317 708,-708" /><path
         id="path210"
         style="fill:#3335cf;fill-opacity:1;fill-rule:nonzero;stroke:none"
         d="m 15381.1,13981.4 c 0,-276.8 -224.4,-501.2 -501.3,-501.2 -276.8,0 -501.3,224.4 -501.3,501.2 0,276.9 224.5,501.3 501.3,501.3 276.9,0 501.3,-224.4 501.3,-501.3" /><path
         id="path212"
         style="fill:#ffffff;fill-opacity:1;fill-rule:nonzero;stroke:none"
         d="m 14800.5,14146.4 c 0,-50.7 -41.2,-91.8 -91.9,-91.8 -50.8,0 -91.9,41.1 -91.9,91.8 0,50.8 41.1,91.9 91.9,91.9 50.7,0 91.9,-41.1 91.9,-91.9" /><path
         id="path214"
         style="fill:#1b1b43;fill-opacity:1;fill-rule:nonzero;stroke:none"
         d="m 14835.1,12806.3 -5.4,41 c 28.9,3.7 58.6,4.2 87.2,1.5 l -4,-41.2 c -25.4,2.4 -52,2 -77.8,-1.3 z m 224.2,-48.2 c -22.2,13.7 -45.8,24.9 -70.4,33.2 l 13.3,39.2 c 27.6,-9.3 54.1,-21.9 78.9,-37.3 z m -368.7,-6.4 -23,34.4 c 24.2,16.2 50.3,29.7 77.5,39.9 l 14.6,-38.6 c -24.3,-9.2 -47.5,-21.2 -69.1,-35.7 z m 478,-102.8 c -13.7,22 -30,42.5 -48.4,60.9 l 29.2,29.2 c 20.6,-20.6 38.9,-43.6 54.3,-68.2 z m -583.6,-10 -35.8,20.7 c 14.6,25.2 32,48.7 52,70 l 30.1,-28.2 c -17.7,-19 -33.3,-40 -46.3,-62.5 z m 633.4,-136.3 c -2.5,26 -8,51.5 -16.4,76.1 l 39.1,13.3 c 9.4,-27.6 15.6,-56.2 18.5,-85.3 z m -678.1,-11.6 -41.3,2.7 c 1.9,29.1 7.1,58 15.5,85.8 l 39.6,-12 c -7.5,-24.8 -12.1,-50.5 -13.8,-76.5 z m 711.3,-108.7 -40.3,9.3 c 5.8,25.3 8.8,51.3 8.8,77.3 h 41.3 c 0,-29.1 -3.3,-58.3 -9.8,-86.6 z m -724.3,-59.6 c -11.2,26.9 -19.3,55.1 -24,83.9 l 40.8,6.7 c 4.2,-25.6 11.4,-50.8 21.4,-74.7 z m 647.5,-95.9 -31.9,26.3 c 16.5,20 30.7,42 42.1,65.3 l 37.1,-18.3 c -12.9,-26.1 -28.8,-50.8 -47.3,-73.3 z m -546.5,-44.9 c -21.9,19.2 -41.6,41 -58.6,64.6 l 33.6,24.1 c 15.2,-21.1 32.8,-40.4 52.3,-57.5 z m 409.1,-60.6 -17.1,37.7 c 23.6,10.7 46,24.1 66.7,40 l 25.1,-32.8 c -23.1,-17.8 -48.2,-32.9 -74.7,-44.9 z m -256.2,-21.1 c -28.2,7.5 -55.5,18.3 -81.2,32.1 l 19.5,36.4 c 22.9,-12.2 47.3,-21.8 72.3,-28.5 z m 98.6,-12.9 c -4.1,0 -8.3,0.1 -12.4,0.2 l 1.4,41.4 11,-0.2 c 22.4,0 44.8,2.2 66.5,6.5 l 8.1,-40.6 c -24.4,-4.8 -49.5,-7.3 -74.6,-7.3" /><g
         transform="scale(1.60182)"
         id="g216"><path
           id="path218"
           style="fill:#d1d1ff;fill-opacity:1;fill-rule:nonzero;stroke:none"
           d="M 14410.7,2349.58 H 16300 v 302.71 h -1889.3 v -302.71" /></g><g
         transform="scale(1.59167)"
         id="g220"><path
           id="path222"
           style="fill:#9293ec;fill-opacity:1;fill-rule:nonzero;stroke:none"
           d="m 16279.6,2412.68 c -11.1,0 -20.3,9.11 -20.3,20.36 v 167.68 c 0,11.18 9.2,20.35 20.3,20.35 11.2,0 20.4,-9.17 20.4,-20.35 v -167.68 c 0,-11.25 -9.2,-20.36 -20.4,-20.36" /></g><g
         transform="scale(1.5587)"
         id="g224"><path
           id="path226"
           style="fill:#9293ec;fill-opacity:1;fill-rule:nonzero;stroke:none"
           d="m 16279.2,2463.72 c -11.4,0 -20.8,9.3 -20.8,20.79 v 171.23 c 0,11.42 9.4,20.79 20.8,20.79 11.4,0 20.8,-9.37 20.8,-20.79 v -171.23 c 0,-11.49 -9.4,-20.79 -20.8,-20.79" /></g><g
         transform="scale(1.52572)"
         id="g228"><path
           id="path230"
           style="fill:#9293ec;fill-opacity:1;fill-rule:nonzero;stroke:none"
           d="m 16278.8,2516.97 c -11.7,0 -21.3,9.5 -21.3,21.24 v 174.93 c 0,11.67 9.6,21.23 21.3,21.23 11.6,0 21.2,-9.56 21.2,-21.23 v -174.93 c 0,-11.74 -9.6,-21.24 -21.2,-21.24" /></g><g
         transform="scale(1.49275)"
         id="g232"><path
           id="path234"
           style="fill:#9293ec;fill-opacity:1;fill-rule:nonzero;stroke:none"
           d="m 16278.3,2572.57 c -12,0 -21.7,9.71 -21.7,21.71 v 178.79 c 0,11.93 9.7,21.71 21.7,21.71 11.9,0 21.7,-9.78 21.7,-21.71 v -178.79 c 0,-12 -9.8,-21.71 -21.7,-21.71" /></g><g
         transform="scale(1.45977)"
         id="g236"><path
           id="path238"
           style="fill:#9293ec;fill-opacity:1;fill-rule:nonzero;stroke:none"
           d="m 16277.8,2630.69 c -12.2,0 -22.2,9.94 -22.2,22.2 v 182.84 c 0,12.19 10,22.19 22.2,22.19 12.3,0 22.2,-10 22.2,-22.19 v -182.84 c 0,-12.26 -9.9,-22.2 -22.2,-22.2" /></g><g
         transform="scale(1.43028)"
         id="g240"><path
           id="path242"
           style="fill:#9293ec;fill-opacity:1;fill-rule:nonzero;stroke:none"
           d="m 16277.3,2684.92 c -12.4,0 -22.6,10.14 -22.6,22.66 v 186.6 c 0,12.45 10.2,22.66 22.6,22.66 12.5,0 22.7,-10.21 22.7,-22.66 v -186.6 c 0,-12.52 -10.2,-22.66 -22.7,-22.66" /></g><g
         transform="scale(1.60182)"
         id="g244"><path
           id="path246"
           style="fill:#d1d1ff;fill-opacity:1;fill-rule:nonzero;stroke:none"
           d="M 14410.7,2046.54 H 16300 v 302.78 h -1889.3 v -302.78" /></g><g
         transform="scale(1.59167)"
         id="g248"><path
           id="path250"
           style="fill:#9293ec;fill-opacity:1;fill-rule:nonzero;stroke:none"
           d="m 16279.6,2107.72 c -11.1,0 -20.3,9.17 -20.3,20.35 v 127.42 h 40.7 v -127.42 c 0,-11.18 -9.2,-20.35 -20.4,-20.35" /></g><g
         transform="scale(1.5587)"
         id="g252"><path
           id="path254"
           style="fill:#9293ec;fill-opacity:1;fill-rule:nonzero;stroke:none"
           d="m 16279.2,2152.31 c -11.4,0 -20.8,9.36 -20.8,20.78 v 130.11 h 41.6 v -130.11 c 0,-11.42 -9.4,-20.78 -20.8,-20.78" /></g><g
         transform="scale(1.52572)"
         id="g256"><path
           id="path258"
           style="fill:#9293ec;fill-opacity:1;fill-rule:nonzero;stroke:none"
           d="m 16278.8,2198.83 c -11.7,0 -21.3,9.56 -21.3,21.23 v 132.92 h 42.5 v -132.92 c 0,-11.67 -9.6,-21.23 -21.2,-21.23" /></g><g
         transform="scale(1.49275)"
         id="g260"><path
           id="path262"
           style="fill:#9293ec;fill-opacity:1;fill-rule:nonzero;stroke:none"
           d="m 16278.3,2247.4 c -12,0 -21.7,9.78 -21.7,21.7 v 135.86 h 43.4 V 2269.1 c 0,-11.92 -9.8,-21.7 -21.7,-21.7" /></g><g
         transform="scale(1.45977)"
         id="g264"><path
           id="path266"
           style="fill:#9293ec;fill-opacity:1;fill-rule:nonzero;stroke:none"
           d="m 16277.8,2298.18 c -12.2,0 -22.2,10 -22.2,22.19 v 138.93 h 44.4 v -138.93 c 0,-12.19 -9.9,-22.19 -22.2,-22.19" /></g><g
         transform="scale(1.43028)"
         id="g268"><path
           id="path270"
           style="fill:#9293ec;fill-opacity:1;fill-rule:nonzero;stroke:none"
           d="m 16277.3,2345.55 c -12.4,0 -22.6,10.21 -22.6,22.65 v 141.79 h 45.3 V 2368.2 c 0,-12.44 -10.2,-22.65 -22.7,-22.65" /></g><g
         transform="scale(1.60182)"
         id="g272"><path
           id="path274"
           style="fill:#b6b6e3;fill-opacity:1;fill-rule:nonzero;stroke:none"
           d="m 16300,2241.2 h -103.3 v 40.08 c 0,11.11 -9.1,20.23 -20.2,20.23 -11.1,0 -20.2,-9.12 -20.2,-20.23 v -40.08 h -295.1 v 40.08 c 0,11.11 -9.1,20.23 -20.2,20.23 -11.2,0 -20.3,-9.12 -20.3,-20.23 v -40.08 h -295.1 v 40.08 c 0,11.11 -9.1,20.23 -20.2,20.23 -11.1,0 -20.2,-9.12 -20.2,-20.23 v -40.08 h -295.1 v 40.08 c 0,11.11 -9.1,20.23 -20.3,20.23 -11.1,0 -20.2,-9.12 -20.2,-20.23 v -40.08 h -295.1 v 40.08 c 0,11.11 -9.1,20.23 -20.3,20.23 -11.1,0 -20.2,-9.12 -20.2,-20.23 v -40.08 h -259.6 v 40.08 c 0,11.11 -9.1,20.23 -20.2,20.23 -11.1,0 -20.2,-9.12 -20.2,-20.23 v -40.08 h -103.3 v 108.12 H 16300 V 2241.2" /></g><g
         transform="scale(1.59167)"
         id="g276"><path
           id="path278"
           style="fill:#8081d3;fill-opacity:1;fill-rule:nonzero;stroke:none"
           d="m 16300,2255.49 h -40.7 v 40.33 c 0,11.18 9.2,20.36 20.3,20.36 11.2,0 20.4,-9.18 20.4,-20.36 v -40.33" /></g><g
         transform="scale(1.5587)"
         id="g280"><path
           id="path282"
           style="fill:#8081d3;fill-opacity:1;fill-rule:nonzero;stroke:none"
           d="m 16300,2303.2 h -41.6 v 41.19 c 0,11.42 9.4,20.79 20.8,20.79 11.4,0 20.8,-9.37 20.8,-20.79 v -41.19" /></g><g
         transform="scale(1.52572)"
         id="g284"><path
           id="path286"
           style="fill:#8081d3;fill-opacity:1;fill-rule:nonzero;stroke:none"
           d="m 16300,2352.98 h -42.5 v 42.08 c 0,11.67 9.6,21.24 21.3,21.24 11.6,0 21.2,-9.57 21.2,-21.24 v -42.08" /></g><g
         transform="scale(1.49275)"
         id="g288"><path
           id="path290"
           style="fill:#8081d3;fill-opacity:1;fill-rule:nonzero;stroke:none"
           d="m 16300,2404.96 h -43.4 v 43.01 c 0,11.92 9.7,21.7 21.7,21.7 11.9,0 21.7,-9.78 21.7,-21.7 v -43.01" /></g><g
         transform="scale(1.45977)"
         id="g292"><path
           id="path294"
           style="fill:#8081d3;fill-opacity:1;fill-rule:nonzero;stroke:none"
           d="m 16300,2459.3 h -44.4 v 43.98 c 0,12.19 10,22.19 22.2,22.19 12.3,0 22.2,-10 22.2,-22.19 v -43.98" /></g><g
         transform="scale(1.43028)"
         id="g296"><path
           id="path298"
           style="fill:#8081d3;fill-opacity:1;fill-rule:nonzero;stroke:none"
           d="m 16300,2509.99 h -45.3 v 44.89 c 0,12.45 10.2,22.65 22.6,22.65 12.5,0 22.7,-10.2 22.7,-22.65 v -44.89" /></g><g
         transform="scale(1.58575)"
         id="g300"><path
           id="path302"
           style="fill:#d1d1ff;fill-opacity:1;fill-rule:nonzero;stroke:none"
           d="M 14391.6,1761.24 H 16300 v 305.85 h -1908.4 v -305.85" /></g><g
         transform="scale(1.57561)"
         id="g304"><path
           id="path306"
           style="fill:#9293ec;fill-opacity:1;fill-rule:nonzero;stroke:none"
           d="m 16279.5,1821.2 c -11.4,0 -20.6,9.27 -20.6,20.56 v 169.47 c 0,11.29 9.2,20.56 20.6,20.56 11.3,0 20.5,-9.27 20.5,-20.56 v -169.47 c 0,-11.29 -9.2,-20.56 -20.5,-20.56" /></g><g
         transform="scale(1.54263)"
         id="g308"><path
           id="path310"
           style="fill:#9293ec;fill-opacity:1;fill-rule:nonzero;stroke:none"
           d="m 16279,1860.13 c -11.5,0 -21,9.47 -21,21 v 173.09 c 0,11.54 9.5,21 21,21 11.6,0 21,-9.46 21,-21 v -173.09 c 0,-11.53 -9.4,-21 -21,-21" /></g><g
         transform="scale(1.50966)"
         id="g312"><path
           id="path314"
           style="fill:#9293ec;fill-opacity:1;fill-rule:nonzero;stroke:none"
           d="m 16278.5,1900.76 c -11.8,0 -21.4,9.68 -21.4,21.46 v 176.87 c 0,11.79 9.6,21.46 21.4,21.46 11.8,0 21.5,-9.67 21.5,-21.46 v -176.87 c 0,-11.78 -9.7,-21.46 -21.5,-21.46" /></g><g
         transform="scale(1.47668)"
         id="g316"><path
           id="path318"
           style="fill:#9293ec;fill-opacity:1;fill-rule:nonzero;stroke:none"
           d="m 16278.1,1943.21 c -12.1,0 -22,9.89 -22,21.94 v 180.81 c 0,12.06 9.9,21.94 22,21.94 12,0 21.9,-9.88 21.9,-21.94 v -180.81 c 0,-12.05 -9.9,-21.94 -21.9,-21.94" /></g><g
         transform="scale(1.44371)"
         id="g320"><path
           id="path322"
           style="fill:#9293ec;fill-opacity:1;fill-rule:nonzero;stroke:none"
           d="m 16277.6,1987.59 c -12.4,0 -22.5,10.12 -22.5,22.44 v 184.95 c 0,12.33 10.1,22.44 22.5,22.44 12.3,0 22.4,-10.11 22.4,-22.44 v -184.95 c 0,-12.32 -10.1,-22.44 -22.4,-22.44" /></g><g
         transform="scale(1.41421)"
         id="g324"><path
           id="path326"
           style="fill:#9293ec;fill-opacity:1;fill-rule:nonzero;stroke:none"
           d="m 16277.1,2029.04 c -12.6,0 -22.9,10.33 -22.9,22.91 v 188.8 c 0,12.59 10.3,22.91 22.9,22.91 12.6,0 22.9,-10.32 22.9,-22.91 v -188.8 c 0,-12.58 -10.3,-22.91 -22.9,-22.91" /></g><g
         transform="scale(1.58575)"
         id="g328"><path
           id="path330"
           style="fill:#d1d1ff;fill-opacity:1;fill-rule:nonzero;stroke:none"
           d="M 14391.6,1455.21 H 16300 v 305.85 h -1908.4 v -305.85" /></g><g
         transform="scale(1.57561)"
         id="g332"><path
           id="path334"
           style="fill:#9293ec;fill-opacity:1;fill-rule:nonzero;stroke:none"
           d="m 16279.5,1513.2 c -11.4,0 -20.6,9.26 -20.6,20.56 v 112.02 h 41.1 v -112.02 c 0,-11.3 -9.2,-20.56 -20.5,-20.56" /></g><g
         transform="scale(1.54263)"
         id="g336"><path
           id="path338"
           style="fill:#9293ec;fill-opacity:1;fill-rule:nonzero;stroke:none"
           d="m 16279,1545.54 c -11.5,0 -21,9.47 -21,21 v 114.42 h 42 v -114.42 c 0,-11.53 -9.4,-21 -21,-21" /></g><g
         transform="scale(1.50966)"
         id="g340"><path
           id="path342"
           style="fill:#9293ec;fill-opacity:1;fill-rule:nonzero;stroke:none"
           d="m 16278.5,1579.3 c -11.8,0 -21.4,9.67 -21.4,21.46 v 116.92 h 42.9 v -116.92 c 0,-11.79 -9.7,-21.46 -21.5,-21.46" /></g><g
         transform="scale(1.47668)"
         id="g344"><path
           id="path346"
           style="fill:#9293ec;fill-opacity:1;fill-rule:nonzero;stroke:none"
           d="m 16278.1,1614.57 c -12.1,0 -22,9.88 -22,21.94 v 119.52 h 43.9 v -119.52 c 0,-12.06 -9.9,-21.94 -21.9,-21.94" /></g><g
         transform="scale(1.44371)"
         id="g348"><path
           id="path350"
           style="fill:#9293ec;fill-opacity:1;fill-rule:nonzero;stroke:none"
           d="m 16277.6,1651.45 c -12.4,0 -22.5,10.11 -22.5,22.44 v 122.25 h 44.9 v -122.25 c 0,-12.33 -10.1,-22.44 -22.4,-22.44" /></g><g
         transform="scale(1.41421)"
         id="g352"><path
           id="path354"
           style="fill:#9293ec;fill-opacity:1;fill-rule:nonzero;stroke:none"
           d="m 16277.1,1685.88 c -12.6,0 -22.9,10.33 -22.9,22.91 v 124.81 h 45.8 v -124.81 c 0,-12.58 -10.3,-22.91 -22.9,-22.91" /></g><g
         transform="scale(1.58575)"
         id="g356"><path
           id="path358"
           style="fill:#b6b6e3;fill-opacity:1;fill-rule:nonzero;stroke:none"
           d="m 16300,1635.25 h -104.3 v 57.07 c 0,11.22 -9.1,20.43 -20.4,20.43 -11.3,0 -20.4,-9.21 -20.4,-20.43 v -57.07 h -298.2 v 57.07 c 0,11.22 -9.1,20.43 -20.4,20.43 -11.2,0 -20.4,-9.21 -20.4,-20.43 v -57.07 h -298.1 v 57.07 c 0,11.22 -9.2,20.43 -20.4,20.43 -11.3,0 -20.5,-9.21 -20.5,-20.43 v -57.07 h -298.1 v 57.07 c 0,11.22 -9.2,20.43 -20.4,20.43 -11.2,0 -20.4,-9.21 -20.4,-20.43 v -57.07 h -298.1 v 57.07 c 0,11.22 -9.2,20.43 -20.5,20.43 -11.2,0 -20.4,-9.21 -20.4,-20.43 v -57.07 h -262.3 v 57.07 c 0,11.22 -9.2,20.43 -20.4,20.43 -11.2,0 -20.4,-9.21 -20.4,-20.43 v -57.07 h -104.3 v 125.81 H 16300 v -125.81" /></g><g
         transform="scale(1.57561)"
         id="g360"><path
           id="path362"
           style="fill:#8081d3;fill-opacity:1;fill-rule:nonzero;stroke:none"
           d="m 16300,1645.78 h -41.1 v 57.44 c 0,11.29 9.2,20.56 20.6,20.56 11.3,0 20.5,-9.27 20.5,-20.56 v -57.44" /></g><g
         transform="scale(1.54263)"
         id="g364"><path
           id="path366"
           style="fill:#8081d3;fill-opacity:1;fill-rule:nonzero;stroke:none"
           d="m 16300,1680.96 h -42 v 58.67 c 0,11.53 9.5,21 21,21 11.6,0 21,-9.47 21,-21 v -58.67" /></g><g
         transform="scale(1.50966)"
         id="g368"><path
           id="path370"
           style="fill:#8081d3;fill-opacity:1;fill-rule:nonzero;stroke:none"
           d="m 16300,1717.68 h -42.9 v 59.94 c 0,11.8 9.6,21.46 21.4,21.46 11.8,0 21.5,-9.66 21.5,-21.46 v -59.94" /></g><g
         transform="scale(1.47668)"
         id="g372"><path
           id="path374"
           style="fill:#8081d3;fill-opacity:1;fill-rule:nonzero;stroke:none"
           d="m 16300,1756.03 h -43.9 v 61.29 c 0,12.05 9.9,21.94 22,21.94 12,0 21.9,-9.89 21.9,-21.94 v -61.29" /></g><g
         transform="scale(1.44371)"
         id="g376"><path
           id="path378"
           style="fill:#8081d3;fill-opacity:1;fill-rule:nonzero;stroke:none"
           d="m 16300,1796.14 h -44.9 v 62.69 c 0,12.33 10.1,22.44 22.5,22.44 12.3,0 22.4,-10.11 22.4,-22.44 v -62.69" /></g><g
         transform="scale(1.41421)"
         id="g380"><path
           id="path382"
           style="fill:#8081d3;fill-opacity:1;fill-rule:nonzero;stroke:none"
           d="m 16300,1833.6 h -45.8 v 63.99 c 0,12.59 10.3,22.91 22.9,22.91 12.6,0 22.9,-10.32 22.9,-22.91 v -63.99" /></g><g
         transform="scale(1.60013)"
         id="g384"><path
           id="path386"
           style="fill:#d1d1ff;fill-opacity:1;fill-rule:nonzero;stroke:none"
           d="M 14408.7,1138.84 H 16300 v 303.1 h -1891.3 v -303.1" /></g><g
         transform="scale(1.58998)"
         id="g388"><path
           id="path390"
           style="fill:#9293ec;fill-opacity:1;fill-rule:nonzero;stroke:none"
           d="m 16279.7,1194.29 c -11.3,0 -20.4,9.18 -20.4,20.38 v 167.86 c 0,11.26 9.1,20.38 20.4,20.38 11.2,0 20.3,-9.12 20.3,-20.38 v -167.86 c 0,-11.2 -9.1,-20.38 -20.3,-20.38" /></g><g
         transform="scale(1.55701)"
         id="g392"><path
           id="path394"
           style="fill:#9293ec;fill-opacity:1;fill-rule:nonzero;stroke:none"
           d="m 16279.2,1219.59 c -11.4,0 -20.8,9.37 -20.8,20.8 v 171.42 c 0,11.5 9.4,20.81 20.8,20.81 11.4,0 20.8,-9.31 20.8,-20.81 v -171.42 c 0,-11.43 -9.4,-20.8 -20.8,-20.8" /></g><g
         transform="scale(1.52403)"
         id="g396"><path
           id="path398"
           style="fill:#9293ec;fill-opacity:1;fill-rule:nonzero;stroke:none"
           d="m 16278.7,1245.97 c -11.6,0 -21.2,9.58 -21.2,21.26 v 175.13 c 0,11.75 9.6,21.26 21.2,21.26 11.7,0 21.3,-9.51 21.3,-21.26 v -175.13 c 0,-11.68 -9.6,-21.26 -21.3,-21.26" /></g><g
         transform="scale(1.49106)"
         id="g400"><path
           id="path402"
           style="fill:#9293ec;fill-opacity:1;fill-rule:nonzero;stroke:none"
           d="m 16278.3,1273.53 c -12,0 -21.8,9.79 -21.8,21.73 v 179 c 0,12 9.8,21.73 21.8,21.73 11.9,0 21.7,-9.73 21.7,-21.73 v -179 c 0,-11.94 -9.8,-21.73 -21.7,-21.73" /></g><g
         transform="scale(1.45808)"
         id="g404"><path
           id="path406"
           style="fill:#9293ec;fill-opacity:1;fill-rule:nonzero;stroke:none"
           d="m 16277.8,1302.33 c -12.2,0 -22.2,10.01 -22.2,22.22 v 183.05 c 0,12.28 10,22.22 22.2,22.22 12.2,0 22.2,-9.94 22.2,-22.22 v -183.05 c 0,-12.21 -10,-22.22 -22.2,-22.22" /></g><g
         transform="scale(1.42859)"
         id="g408"><path
           id="path410"
           style="fill:#9293ec;fill-opacity:1;fill-rule:nonzero;stroke:none"
           d="m 16277.3,1329.22 c -12.4,0 -22.7,10.21 -22.7,22.67 v 186.83 c 0,12.53 10.3,22.68 22.7,22.68 12.5,0 22.7,-10.15 22.7,-22.68 v -186.83 c 0,-12.46 -10.2,-22.67 -22.7,-22.67" /></g><g
         transform="scale(1.25552)"
         id="g412"><path
           id="path414"
           style="fill:#ffbc96;fill-opacity:1;fill-rule:nonzero;stroke:none"
           d="m 16234.8,7929.57 c 0,0 65.2,320.4 7.5,310.11 -57.6,-10.29 -63.8,-94.68 -63.8,-94.68 0,0 -24.7,300.51 -86.4,284.05 -61.8,-16.47 -18.5,-255.23 -18.5,-255.23 -53.6,20.58 -146.2,8.23 -187.4,-90.56 -54.1,-18.2 -71.4,-76.92 -55.5,-131.7 l 85.7,-208.6 142.7,-81.64 175.7,268.25" /></g><g
         transform="scale(1.32871)"
         id="g416"><path
           id="path418"
           style="fill:#ffa121;fill-opacity:1;fill-rule:nonzero;stroke:none"
           d="m 16300,7373.49 c -184.1,-69.99 -308.6,-171.14 -596.4,-412.35 l -363.1,531.64 -300.8,-176.33 398.5,-735.61 c 76.8,-141.94 256.4,-191.24 395,-108.53 l 466.8,278.77 v 622.41" /></g><g
         transform="scale(1.23186)"
         id="g420"><path
           id="path422"
           style="fill:#d28572;fill-opacity:1;fill-rule:nonzero;stroke:none"
           d="m 16264.4,8071.13 c -17.1,0 -44.5,13.81 -86.2,42.95 l 9.6,13.8 c 68.9,-48.22 79.6,-39.29 79.7,-39.29 6.8,6.57 -13.3,52.71 -41.2,94.91 l 14,9.26 c 18.6,-28.16 59.7,-95.89 38.9,-116.19 -3.7,-3.57 -8.6,-5.44 -14.8,-5.44" /></g><g
         transform="scale(1.24176)"
         id="g424"><path
           id="path426"
           style="fill:#d28572;fill-opacity:1;fill-rule:nonzero;stroke:none"
           d="m 16192.6,8042.77 c -34.9,0 -84.7,65.96 -95.5,80.73 l 13.5,9.78 c 26.6,-36.61 71.3,-82.21 85.8,-72.81 1.2,0.78 2.9,2.23 3.8,6.09 4.3,19.99 -20.3,67.89 -36.7,93.38 l 13.6,9.5 c 20.5,-27.36 59.9,-70.71 78.6,-70.71 2.2,0.15 3.8,0.75 5.2,2.67 15.7,21.47 -16.1,74.54 -28.5,91.43 l 13.4,9.85 c 5.6,-7.68 54.2,-76 28.5,-111.13 -4.5,-6.16 -10.9,-9.44 -18.4,-9.48 h -0.2 c -13.9,0 -31.2,11.98 -47,26.64 6.3,-16.57 10.4,-33.32 7.8,-45.68 -1.6,-7.21 -5.4,-12.93 -11,-16.55 -4,-2.58 -8.3,-3.71 -12.9,-3.71" /></g><g
         transform="scale(1.3391)"
         id="g428"><path
           id="path430"
           style="fill:#1b1b43;fill-opacity:1;fill-rule:nonzero;stroke:none"
           d="m 15566.3,1377.5 535.2,226.49 133.8,-216.19 64.7,457.03 c -152.1,-69.61 -339,-123.82 -496.7,-148.91 l -237,-318.42" /></g><g
         transform="scale(1.36337)"
         id="g432"><path
           id="path434"
           style="fill:#ffbc96;fill-opacity:1;fill-rule:nonzero;stroke:none"
           d="m 15622.7,3799.4 c 0,-30.3 20.2,-1971.29 20.2,-1971.29 l -121,-162.39 c 154.9,24.65 338.5,77.89 487.9,146.26 l 290.2,2048.07 -677.3,-60.65" /></g><g
         transform="scale(1.46577)"
         id="g436"><path
           id="path438"
           style="fill:#1b1b43;fill-opacity:1;fill-rule:nonzero;stroke:none"
           d="m 16204.1,1965.87 c -78.2,-142.25 -246.7,-320.45 -387.3,-387.45 l -61.9,-314.03 c 194,10.57 251.2,188.98 351.8,403.88 l 193.3,-128.6 c -31,143.89 -62.7,286 -95.9,426.2" /></g><g
         transform="scale(1.45715)"
         id="g440"><path
           id="path442"
           style="fill:#ffbc96;fill-opacity:1;fill-rule:nonzero;stroke:none"
           d="m 16300,1977.49 c -154.4,652.65 -342,1263.16 -654.1,1805.59 l -473.7,-287.76 c 11.8,-25.8 785.1,-1669.08 785.1,-1669.08 l -47,-238.48 c 141.5,67.39 311,246.65 389.7,389.73" /></g><g
         transform="scale(1.4418)"
         id="g444"><path
           id="path446"
           style="fill:#3335cf;fill-opacity:1;fill-rule:nonzero;stroke:none"
           d="m 16300,3446.65 h -1684.8 c -11.5,661.33 58.2,1329.52 227,1846.58 23.6,72 48.8,141.07 76.3,206.76 l 949,-125.61 c 7.2,-18.93 14.1,-38.15 20.7,-57.36 204.7,-567.2 338.4,-1193.85 411.8,-1870.37" /></g><g
         transform="scale(1.40537)"
         id="g448"><path
           id="path450"
           style="fill:#25257b;fill-opacity:1;fill-rule:nonzero;stroke:none"
           d="m 15566.1,5418.56 c -119.6,0 -233,3.77 -339.1,11.88 24.2,73.86 50,144.73 78.2,212.12 l 973.6,-128.87 c 7.4,-19.42 14.4,-39.13 21.2,-58.84 -263.2,-22.99 -509.7,-36.29 -733.9,-36.29" /></g><g
         transform="scale(1.41684)"
         id="g452"><path
           id="path454"
           style="fill:#ffa121;fill-opacity:1;fill-rule:nonzero;stroke:none"
           d="m 16208.7,6052.2 c -36.5,-311.12 -66.6,-581.65 -61.9,-591.32 -22.8,6.71 -691.1,57.24 -974.4,78.49 -70.6,5.22 -125.1,63.87 -125.5,134.73 l -4.7,905.97 c -8.5,145.32 82.3,277.58 220.4,323.96 102.1,34.44 210.3,56.32 325,65.63 l 448.6,-59.49 c 96.6,-12.85 186.4,-47.58 263.8,-99.24 -23.1,-187.04 -59.6,-488.27 -91.3,-758.73" /></g><g
         transform="scale(1.40401)"
         id="g456"><path
           id="path458"
           style="fill:#102048;fill-opacity:1;fill-rule:nonzero;stroke:none"
           d="m 16294.9,5502.94 h -3.2 l -2.5,2.21 5.4,5.63 v 7.33 l 0.1,-7.12 5,5.2 0.3,-0.29 -5.3,-5.27 0.2,-7.69" /></g><g
         transform="scale(1.48088)"
         id="g460"><path
           id="path462"
           style="fill:#ebebff;fill-opacity:1;fill-rule:nonzero;stroke:none"
           d="m 16300,4980.9 -9.9,-761.31 -1035.6,336.83 10,761.31 1035.5,-336.83" /></g><g
         transform="scale(1.4269)"
         id="g464"><path
           id="path466"
           style="fill:#c5c5ff;fill-opacity:1;fill-rule:nonzero;stroke:none"
           d="m 16300,5232.48 -5.4,-504.81 -262.3,85.3 6.9,513.7 260.8,-94.19" /></g><g
         transform="scale(1.45879)"
         id="g468"><path
           id="path470"
           style="fill:#ffa121;fill-opacity:1;fill-rule:nonzero;stroke:none"
           d="m 16087.2,6240.1 c -34.3,156.98 -127.8,289.62 -255.9,374.96 -22.5,-181.65 -57.9,-474.22 -88.7,-736.91 l 225.9,-1050.11 331.5,-51.48 -212.8,1463.54" /></g><g
         transform="scale(1.46374)"
         id="g472"><path
           id="path474"
           style="fill:#ffbc96;fill-opacity:1;fill-rule:nonzero;stroke:none"
           d="m 16244.9,4760.4 -330.4,51.31 82.4,-383.13 c 50.6,-33.89 122.9,-58.75 207.7,-78.22 49.6,-11.55 95.4,31.08 88.1,81.64 l -47.8,328.4" /></g><g
         transform="scale(1.44096)"
         id="g476"><path
           id="path478"
           style="fill:#ffbc96;fill-opacity:1;fill-rule:nonzero;stroke:none"
           d="m 16206.7,4737.82 c 0,0 -62.8,-261.49 -40.6,-277.38 66.9,-47.82 133.9,193.69 133.9,193.69 l -93.3,83.69" /></g><g
         transform="scale(1.37633)"
         id="g480"><path
           id="path482"
           style="fill:#ffbc96;fill-opacity:1;fill-rule:nonzero;stroke:none"
           d="m 16300,7490.26 v -344.6 c 0,-108.47 -88.1,-196.46 -196.5,-196.46 -108.4,0 -196.5,87.99 -196.5,196.46 v 344.6 h 393" /></g><g
         transform="scale(1.37014)"
         id="g484"><path
           id="path486"
           style="fill:#1b1b43;fill-opacity:1;fill-rule:nonzero;stroke:none"
           d="m 16300,7429.64 c -48.6,-133.97 -196.2,-241.4 -321.1,-251.69 v 254.71 l 321.1,-3.02" /></g><g
         transform="scale(1.40153)"
         id="g488"><path
           id="path490"
           style="fill:#1b1b43;fill-opacity:1;fill-rule:nonzero;stroke:none"
           d="m 16300,8001.69 c 0,-121.69 -98.7,-220.33 -220.4,-220.33 -121.7,0 -220.3,98.64 -220.3,220.33 0,121.7 98.6,220.35 220.3,220.35 121.7,0 220.4,-98.65 220.4,-220.35" /></g><g
         transform="scale(1.38948)"
         id="g492"><path
           id="path494"
           style="fill:#1b1b43;fill-opacity:1;fill-rule:nonzero;stroke:none"
           d="m 16288.8,7742.82 c -9,-177.99 -190.9,-312.46 -394.3,-312.46 -203.4,0 -384.9,143.55 -384.9,321.76 0,178.21 218.7,364.52 422.1,364.52 203.4,0 368.3,-152.5 357.1,-373.82" /></g><g
         transform="scale(1.37894)"
         id="g496"><path
           id="path498"
           style="fill:#ffbc96;fill-opacity:1;fill-rule:nonzero;stroke:none"
           d="m 16300,7602.9 c 0,-5.4 0,-10.8 -0.7,-16.19 -2.1,-43.48 -12.8,-84.56 -30.2,-122.05 -0.6,-2.09 -1.5,-3.89 -2.4,-5.69 -21.9,-45.28 -52.8,-85.16 -89.7,-118.44 -69.8,-63.58 -160.4,-101.37 -243.7,-101.37 -20.1,0 -39,2.1 -56.5,6.6 -66.8,15.91 -115.3,61.78 -146.2,126.85 -19.8,40.78 -32.4,89.36 -39,143.03 -3.3,27.89 -5.1,56.97 -5.1,87.26 0,12.9 0.6,25.48 1.5,38.08 3,33.88 9.3,66.57 19.2,97.15 44.3,140.33 155.6,239.88 286,239.88 152,0 278.3,-135.23 302.3,-312.74 2,-12.6 3.3,-25.19 3.8,-38.39 0.3,-7.79 0.7,-15.88 0.7,-23.98" /></g><g
         transform="scale(1.38409)"
         id="g500"><path
           id="path502"
           style="fill:#1b1b43;fill-opacity:1;fill-rule:nonzero;stroke:none"
           d="m 16216,7558.27 c -89.6,33.61 -243.1,121.1 -267,229.65 -181.9,11.26 -216.5,-7.17 -324.9,-98.95 l 26.2,169.9 278.1,173.64 259.5,-78.42 112.1,-246.45 -84,-149.37" /></g><g
         transform="scale(1.38578)"
         id="g504"><path
           id="path506"
           style="fill:#ffbc96;fill-opacity:1;fill-rule:nonzero;stroke:none"
           d="m 16280.1,7494.82 c -19.9,-54.41 -73.3,-84.87 -119.5,-68.02 -46.1,16.85 -67.4,74.61 -47.6,129.02 19.9,54.42 73.4,84.87 119.5,68.03 46.2,-16.85 67.5,-74.62 47.6,-129.03" /></g><g
         transform="scale(1.37906)"
         id="g508"><path
           id="path510"
           style="fill:#1b1b43;fill-opacity:1;fill-rule:nonzero;stroke:none"
           d="m 16265.3,7512.48 c -5,16.5 -6,34.21 -2.3,51.98 2.2,8.76 5.9,17.52 11.7,24.93 5.9,7.28 13.8,13.01 22.5,15.44 l 2.8,-5.15 c -12.1,-10.95 -19.2,-23.52 -22.6,-38.68 -3.9,-14.95 -4.2,-31.21 -6.3,-47.96 l -5.8,-0.56" /></g><g
         transform="scale(1.33367)"
         id="g512"><path
           id="path514"
           style="fill:#1b1b43;fill-opacity:1;fill-rule:nonzero;stroke:none"
           d="m 16300,7817.66 c 0,-13.91 -8.8,-25.2 -19.8,-25.2 -10.9,0 -19.9,11.29 -19.9,25.2 0,13.92 9,25.21 19.9,25.21 11,0 19.8,-11.29 19.8,-25.21" /></g><g
         transform="scale(1.3485)"
         id="g516"><path
           id="path518"
           style="fill:#1b1b43;fill-opacity:1;fill-rule:nonzero;stroke:none"
           d="m 16300,7755.38 c 0,-16.14 -10.2,-29.22 -23,-29.22 -12.7,0 -23,13.08 -23,29.22 0,16.14 10.3,29.23 23,29.23 12.8,0 23,-13.09 23,-29.23" /></g><g
         transform="scale(1.34012)"
         id="g520"><path
           id="path522"
           style="fill:#d28572;fill-opacity:1;fill-rule:nonzero;stroke:none"
           d="m 16273.7,7758.89 c 1.5,-11.33 0,-23.07 -3.5,-34.09 -2.9,-11.16 -10.2,-21.41 -12.2,-29.53 -1,-4.24 -1,-6.12 0.8,-8.53 2,-2.48 6.2,-4.89 10.3,-6.53 8.7,-3.44 19.5,-3.98 30.3,-4.94 l 0.6,-6.01 c -10.8,-3.03 -22.4,-4.69 -34.8,-1.96 -6.2,1.45 -12.1,4.37 -17.5,9.84 -5.8,5.86 -6.8,16.19 -4.4,22.27 4.6,12.73 10.7,20.43 14.8,30 4.3,9.37 7.4,19.24 9.7,29.71 l 5.9,-0.23" /></g><g
         transform="scale(1.34921)"
         id="g524"><path
           id="path526"
           style="fill:#1b1b43;fill-opacity:1;fill-rule:nonzero;stroke:none"
           d="m 16176.4,7545.84 c 24.8,-4.28 49.9,-4.86 70.5,6.12 21.2,10.03 35.4,30.26 47.5,52.36 l 5.6,-1.98 c -4.7,-25.69 -20.9,-51.28 -46.4,-63.99 -25.6,-12.46 -55.6,-9.79 -79,1.8 l 1.8,5.69" /></g><g
         transform="scale(1.33433)"
         id="g528"><path
           id="path530"
           style="fill:#1b1b43;fill-opacity:1;fill-rule:nonzero;stroke:none"
           d="m 16295.7,7895.84 c 4.3,-11.59 -16.1,-22.59 -38.9,-30.31 -22.8,-7.73 -39.7,-9.4 -43.7,2.33 -3.9,11.74 12.3,24.75 34.1,35.25 22.8,11.01 37.8,21.01 48.5,-7.27" /></g><g
         transform="scale(1.35229)"
         id="g532"><path
           id="path534"
           style="fill:#1b1b43;fill-opacity:1;fill-rule:nonzero;stroke:none"
           d="m 16175.7,7808.9 c -1,-12.46 31.3,-17.38 65.6,-18.44 34.1,-1.06 57.9,2.09 58.3,14.6 0.4,12.5 -27.3,20.52 -61.3,24.56 -35.7,4.23 -60.3,9.68 -62.6,-20.72" /></g><g
         transform="scale(1.36675)"
         id="g536"><path
           id="path538"
           style="fill:#ffa988;fill-opacity:1;fill-rule:nonzero;stroke:none"
           d="m 16217,7493.58 c -46,0 -83.2,37.22 -83.2,83.12 0,45.9 37.2,83.12 83.2,83.12 45.8,0 83,-37.22 83,-83.12 0,-45.9 -37.2,-83.12 -83,-83.12" /></g><g
         transform="scale(1.33315)"
         id="g540"><path
           id="path542"
           style="fill:#ffa988;fill-opacity:1;fill-rule:nonzero;stroke:none"
           d="m 16270.9,7625.85 v 0 c -20.5,42.18 -33.5,92.42 -40.4,147.94 39.7,-7.44 69.5,-41.87 69.5,-83.74 0,-25.43 -11.2,-48.39 -29.1,-64.2" /></g><g
         transform="scale(1.30947)"
         id="g544"><path
           id="path546"
           style="fill:#1b1b43;fill-opacity:1;fill-rule:nonzero;stroke:none"
           d="m 16294.7,6560.74 -15.8,0.15 5.3,447.35 15.8,-0.15 -5.3,-447.35" /></g><g
         transform="scale(1.4089)"
         id="g548"><path
           id="path550"
           style="fill:#1b1b43;fill-opacity:1;fill-rule:nonzero;stroke:none"
           d="m 16300,6086.3 -47.3,168 c -39.1,-148.13 -31.5,-262.04 29,-321.24 l 18.3,153.24" /></g><g
         transform="scale(1.38037)"
         id="g552"><path
           id="path554"
           style="fill:#1b1b43;fill-opacity:1;fill-rule:nonzero;stroke:none"
           d="m 16054.1,6783.92 c -8.7,0 -17.3,0.36 -26,1.15 -86.2,7.18 -160.9,50.93 -194.9,114.25 l 13.2,7.03 c 31.6,-58.83 101.7,-99.54 182.9,-106.42 100.2,-8.26 194.3,34.48 258.8,117.5 l 11.9,-9.2 c -62.2,-79.91 -150.7,-124.31 -245.9,-124.31" /></g><path
         id="path556"
         style="fill:#d1d1ff;fill-opacity:1;fill-rule:nonzero;stroke:none"
         d="m 4773.71,3763.6 h 3026.35 v 484.898 H 4773.71 Z" /><path
         id="path558"
         style="fill:#9293ec;fill-opacity:1;fill-rule:nonzero;stroke:none"
         d="m 4971.51,3840.2 c -17.81,0 -32.39,14.5 -32.39,32.4 v 69.8 l 64.79,108.4 v -178.2 c 0,-17.9 -14.58,-32.4 -32.4,-32.4" /><path
         id="path560"
         style="fill:#9293ec;fill-opacity:1;fill-rule:nonzero;stroke:none"
         d="m 5509.03,3840.2 c -17.81,0 -32.39,14.5 -32.39,32.4 v 266.9 c 0,17.8 14.58,32.4 32.39,32.4 17.82,0 32.4,-14.6 32.4,-32.4 v -266.9 c 0,-17.9 -14.58,-32.4 -32.4,-32.4" /><path
         id="path562"
         style="fill:#9293ec;fill-opacity:1;fill-rule:nonzero;stroke:none"
         d="m 6046.55,3840.2 c -17.82,0 -32.39,14.5 -32.39,32.4 v 266.9 c 0,17.8 14.57,32.4 32.39,32.4 17.82,0 32.4,-14.6 32.4,-32.4 v -266.9 c 0,-17.9 -14.58,-32.4 -32.4,-32.4" /><path
         id="path564"
         style="fill:#9293ec;fill-opacity:1;fill-rule:nonzero;stroke:none"
         d="m 6584.08,3840.2 c -17.83,0 -32.4,14.5 -32.4,32.4 v 266.9 c 0,17.8 14.57,32.4 32.4,32.4 17.82,0 32.39,-14.6 32.39,-32.4 v -266.9 c 0,-17.9 -14.57,-32.4 -32.39,-32.4" /><path
         id="path566"
         style="fill:#9293ec;fill-opacity:1;fill-rule:nonzero;stroke:none"
         d="m 7121.59,3840.2 c -17.81,0 -32.39,14.5 -32.39,32.4 v 266.9 c 0,17.8 14.58,32.4 32.39,32.4 17.83,0 32.4,-14.6 32.4,-32.4 v -266.9 c 0,-17.9 -14.57,-32.4 -32.4,-32.4" /><path
         id="path568"
         style="fill:#9293ec;fill-opacity:1;fill-rule:nonzero;stroke:none"
         d="m 7602.27,3840.2 c -17.83,0 -32.4,14.5 -32.4,32.4 v 266.9 c 0,17.8 14.57,32.4 32.4,32.4 17.81,0 32.39,-14.6 32.39,-32.4 v -266.9 c 0,-17.9 -14.58,-32.4 -32.39,-32.4" /><path
         id="path570"
         style="fill:#d1d1ff;fill-opacity:1;fill-rule:nonzero;stroke:none"
         d="m 4773.71,3278.2 h 3026.35 v 485 H 4773.71 Z" /><path
         id="path572"
         style="fill:#9293ec;fill-opacity:1;fill-rule:nonzero;stroke:none"
         d="m 4971.51,3354.8 c -17.81,0 -32.39,14.6 -32.39,32.4 V 3590 h 64.79 v -202.8 c 0,-17.8 -14.58,-32.4 -32.4,-32.4" /><path
         id="path574"
         style="fill:#9293ec;fill-opacity:1;fill-rule:nonzero;stroke:none"
         d="m 5509.03,3354.8 c -17.81,0 -32.39,14.6 -32.39,32.4 V 3590 h 64.79 v -202.8 c 0,-17.8 -14.58,-32.4 -32.4,-32.4" /><path
         id="path576"
         style="fill:#9293ec;fill-opacity:1;fill-rule:nonzero;stroke:none"
         d="m 6046.55,3354.8 c -17.82,0 -32.39,14.6 -32.39,32.4 V 3590 h 64.79 v -202.8 c 0,-17.8 -14.58,-32.4 -32.4,-32.4" /><path
         id="path578"
         style="fill:#9293ec;fill-opacity:1;fill-rule:nonzero;stroke:none"
         d="m 6584.08,3354.8 c -17.83,0 -32.4,14.6 -32.4,32.4 V 3590 h 64.79 v -202.8 c 0,-17.8 -14.57,-32.4 -32.39,-32.4" /><path
         id="path580"
         style="fill:#9293ec;fill-opacity:1;fill-rule:nonzero;stroke:none"
         d="m 7121.59,3354.8 c -17.81,0 -32.39,14.6 -32.39,32.4 V 3590 h 64.79 v -202.8 c 0,-17.8 -14.57,-32.4 -32.4,-32.4" /><path
         id="path582"
         style="fill:#9293ec;fill-opacity:1;fill-rule:nonzero;stroke:none"
         d="m 7602.27,3354.8 c -17.83,0 -32.4,14.6 -32.4,32.4 V 3590 h 64.79 v -202.8 c 0,-17.8 -14.58,-32.4 -32.39,-32.4" /><path
         id="path584"
         style="fill:#b6b6e3;fill-opacity:1;fill-rule:nonzero;stroke:none"
         d="m 7800.06,3590 h -165.4 v 64.2 c 0,17.8 -14.58,32.4 -32.39,32.4 -17.83,0 -32.4,-14.6 -32.4,-32.4 V 3590 h -415.88 v 64.2 c 0,17.8 -14.57,32.4 -32.4,32.4 -17.81,0 -32.39,-14.6 -32.39,-32.4 V 3590 h -472.73 v 64.2 c 0,17.8 -14.57,32.4 -32.39,32.4 -17.83,0 -32.4,-14.6 -32.4,-32.4 V 3590 h -472.73 v 64.2 c 0,17.8 -14.58,32.4 -32.4,32.4 -17.82,0 -32.39,-14.6 -32.39,-32.4 V 3590 h -472.73 v 64.2 c 0,17.8 -14.58,32.4 -32.4,32.4 -17.81,0 -32.39,-14.6 -32.39,-32.4 V 3590 h -472.73 v 64.2 c 0,17.8 -14.58,32.4 -32.4,32.4 -17.81,0 -32.39,-14.6 -32.39,-32.4 V 3590 h -165.41 v 75.7 l 58.3,97.5 H 7800.06 V 3590" /><path
         id="path586"
         style="fill:#8081d3;fill-opacity:1;fill-rule:nonzero;stroke:none"
         d="m 5003.91,3590 h -64.79 v 64.2 c 0,17.8 14.58,32.4 32.39,32.4 17.82,0 32.4,-14.6 32.4,-32.4 V 3590" /><path
         id="path588"
         style="fill:#8081d3;fill-opacity:1;fill-rule:nonzero;stroke:none"
         d="m 5541.43,3590 h -64.79 v 64.2 c 0,17.8 14.58,32.4 32.39,32.4 17.82,0 32.4,-14.6 32.4,-32.4 V 3590" /><path
         id="path590"
         style="fill:#8081d3;fill-opacity:1;fill-rule:nonzero;stroke:none"
         d="m 6078.95,3590 h -64.79 v 64.2 c 0,17.8 14.57,32.4 32.39,32.4 17.82,0 32.4,-14.6 32.4,-32.4 V 3590" /><path
         id="path592"
         style="fill:#8081d3;fill-opacity:1;fill-rule:nonzero;stroke:none"
         d="m 6616.47,3590 h -64.79 v 64.2 c 0,17.8 14.57,32.4 32.4,32.4 17.82,0 32.39,-14.6 32.39,-32.4 V 3590" /><path
         id="path594"
         style="fill:#8081d3;fill-opacity:1;fill-rule:nonzero;stroke:none"
         d="m 7153.99,3590 h -64.79 v 64.2 c 0,17.8 14.58,32.4 32.39,32.4 17.83,0 32.4,-14.6 32.4,-32.4 V 3590" /><path
         id="path596"
         style="fill:#8081d3;fill-opacity:1;fill-rule:nonzero;stroke:none"
         d="m 7634.66,3590 h -64.79 v 64.2 c 0,17.8 14.57,32.4 32.4,32.4 17.81,0 32.39,-14.6 32.39,-32.4 V 3590" /><path
         id="path598"
         style="fill:#d1d1ff;fill-opacity:1;fill-rule:nonzero;stroke:none"
         d="m 5035.58,2792.9 h 3026.35 v 485 H 5035.58 Z" /><path
         id="path600"
         style="fill:#9293ec;fill-opacity:1;fill-rule:nonzero;stroke:none"
         d="m 5233.38,2869.5 c -17.81,0 -32.4,14.6 -32.4,32.4 v 267 c 0,17.8 14.59,32.4 32.4,32.4 17.82,0 32.39,-14.6 32.39,-32.4 v -267 c 0,-17.8 -14.57,-32.4 -32.39,-32.4" /><path
         id="path602"
         style="fill:#9293ec;fill-opacity:1;fill-rule:nonzero;stroke:none"
         d="m 5770.9,2869.5 c -17.81,0 -32.4,14.6 -32.4,32.4 v 267 c 0,17.8 14.59,32.4 32.4,32.4 17.82,0 32.4,-14.6 32.4,-32.4 v -267 c 0,-17.8 -14.58,-32.4 -32.4,-32.4" /><path
         id="path604"
         style="fill:#9293ec;fill-opacity:1;fill-rule:nonzero;stroke:none"
         d="m 6308.42,2869.5 c -17.81,0 -32.4,14.6 -32.4,32.4 v 267 c 0,17.8 14.59,32.4 32.4,32.4 17.82,0 32.4,-14.6 32.4,-32.4 v -267 c 0,-17.8 -14.58,-32.4 -32.4,-32.4" /><path
         id="path606"
         style="fill:#9293ec;fill-opacity:1;fill-rule:nonzero;stroke:none"
         d="m 6845.94,2869.5 c -17.81,0 -32.39,14.6 -32.39,32.4 v 267 c 0,17.8 14.58,32.4 32.39,32.4 17.82,0 32.4,-14.6 32.4,-32.4 v -267 c 0,-17.8 -14.58,-32.4 -32.4,-32.4" /><path
         id="path608"
         style="fill:#9293ec;fill-opacity:1;fill-rule:nonzero;stroke:none"
         d="m 7383.47,2869.5 c -17.82,0 -32.4,14.6 -32.4,32.4 v 267 c 0,17.8 14.58,32.4 32.4,32.4 17.81,0 32.39,-14.6 32.39,-32.4 v -267 c 0,-17.8 -14.58,-32.4 -32.39,-32.4" /><path
         id="path610"
         style="fill:#9293ec;fill-opacity:1;fill-rule:nonzero;stroke:none"
         d="m 7864.13,2869.5 c -17.82,0 -32.39,14.6 -32.39,32.4 v 267 c 0,17.8 14.57,32.4 32.39,32.4 17.83,0 32.4,-14.6 32.4,-32.4 v -267 c 0,-17.8 -14.57,-32.4 -32.4,-32.4" /><path
         id="path612"
         style="fill:#d1d1ff;fill-opacity:1;fill-rule:nonzero;stroke:none"
         d="m 5035.58,2307.6 h 3026.35 v 485 H 5035.58 Z" /><path
         id="path614"
         style="fill:#9293ec;fill-opacity:1;fill-rule:nonzero;stroke:none"
         d="m 5233.38,2384.2 c -17.81,0 -32.4,14.6 -32.4,32.4 v 176.5 h 64.79 v -176.5 c 0,-17.8 -14.57,-32.4 -32.39,-32.4" /><path
         id="path616"
         style="fill:#9293ec;fill-opacity:1;fill-rule:nonzero;stroke:none"
         d="m 5770.9,2384.2 c -17.81,0 -32.4,14.6 -32.4,32.4 v 176.5 h 64.8 v -176.5 c 0,-17.8 -14.58,-32.4 -32.4,-32.4" /><path
         id="path618"
         style="fill:#9293ec;fill-opacity:1;fill-rule:nonzero;stroke:none"
         d="m 6308.42,2384.2 c -17.81,0 -32.4,14.6 -32.4,32.4 v 176.5 h 64.8 v -176.5 c 0,-17.8 -14.58,-32.4 -32.4,-32.4" /><path
         id="path620"
         style="fill:#9293ec;fill-opacity:1;fill-rule:nonzero;stroke:none"
         d="m 6845.94,2384.2 c -17.81,0 -32.39,14.6 -32.39,32.4 v 176.5 h 64.79 v -176.5 c 0,-17.8 -14.58,-32.4 -32.4,-32.4" /><path
         id="path622"
         style="fill:#9293ec;fill-opacity:1;fill-rule:nonzero;stroke:none"
         d="m 7383.47,2384.2 c -17.82,0 -32.4,14.6 -32.4,32.4 v 176.5 h 64.79 v -176.5 c 0,-17.8 -14.58,-32.4 -32.39,-32.4" /><path
         id="path624"
         style="fill:#9293ec;fill-opacity:1;fill-rule:nonzero;stroke:none"
         d="m 7864.13,2384.2 c -17.82,0 -32.39,14.6 -32.39,32.4 v 176.5 h 64.79 v -176.5 c 0,-17.8 -14.57,-32.4 -32.4,-32.4" /><path
         id="path626"
         style="fill:#b6b6e3;fill-opacity:1;fill-rule:nonzero;stroke:none"
         d="m 8061.93,2593.1 h -165.4 v 90.5 c 0,17.8 -14.57,32.4 -32.4,32.4 -17.82,0 -32.39,-14.6 -32.39,-32.4 v -90.5 h -415.88 v 90.5 c 0,17.8 -14.58,32.4 -32.39,32.4 -17.82,0 -32.4,-14.6 -32.4,-32.4 v -90.5 h -472.73 v 90.5 c 0,17.8 -14.58,32.4 -32.4,32.4 -17.81,0 -32.39,-14.6 -32.39,-32.4 v -90.5 h -472.73 v 90.5 c 0,17.8 -14.58,32.4 -32.4,32.4 -17.81,0 -32.4,-14.6 -32.4,-32.4 v -90.5 H 5803.3 v 90.5 c 0,17.8 -14.58,32.4 -32.4,32.4 -17.81,0 -32.4,-14.6 -32.4,-32.4 v -90.5 h -472.73 v 90.5 c 0,17.8 -14.57,32.4 -32.39,32.4 -17.81,0 -32.4,-14.6 -32.4,-32.4 v -90.5 h -165.4 v 199.5 h 3026.35 v -199.5" /><path
         id="path628"
         style="fill:#8081d3;fill-opacity:1;fill-rule:nonzero;stroke:none"
         d="m 5265.77,2593.1 h -64.79 v 90.5 c 0,17.8 14.59,32.4 32.4,32.4 17.82,0 32.39,-14.6 32.39,-32.4 v -90.5" /><path
         id="path630"
         style="fill:#8081d3;fill-opacity:1;fill-rule:nonzero;stroke:none"
         d="m 5803.3,2593.1 h -64.8 v 90.5 c 0,17.8 14.59,32.4 32.4,32.4 17.82,0 32.4,-14.6 32.4,-32.4 v -90.5" /><path
         id="path632"
         style="fill:#8081d3;fill-opacity:1;fill-rule:nonzero;stroke:none"
         d="m 6340.82,2593.1 h -64.8 v 90.5 c 0,17.8 14.59,32.4 32.4,32.4 17.82,0 32.4,-14.6 32.4,-32.4 v -90.5" /><path
         id="path634"
         style="fill:#8081d3;fill-opacity:1;fill-rule:nonzero;stroke:none"
         d="m 6878.34,2593.1 h -64.79 v 90.5 c 0,17.8 14.58,32.4 32.39,32.4 17.82,0 32.4,-14.6 32.4,-32.4 v -90.5" /><path
         id="path636"
         style="fill:#8081d3;fill-opacity:1;fill-rule:nonzero;stroke:none"
         d="m 7415.86,2593.1 h -64.79 v 90.5 c 0,17.8 14.58,32.4 32.4,32.4 17.81,0 32.39,-14.6 32.39,-32.4 v -90.5" /><path
         id="path638"
         style="fill:#8081d3;fill-opacity:1;fill-rule:nonzero;stroke:none"
         d="m 7896.53,2593.1 h -64.79 v 90.5 c 0,17.8 14.57,32.4 32.39,32.4 17.83,0 32.4,-14.6 32.4,-32.4 v -90.5" /><path
         id="path640"
         style="fill:#d1d1ff;fill-opacity:1;fill-rule:nonzero;stroke:none"
         d="m 4801.28,1822.3 h 3026.35 v 485 H 4801.28 Z" /><path
         id="path642"
         style="fill:#9293ec;fill-opacity:1;fill-rule:nonzero;stroke:none"
         d="m 4999.08,1898.9 c -17.82,0 -32.4,14.6 -32.4,32.4 v 266.9 c 0,17.9 14.58,32.4 32.4,32.4 17.81,0 32.39,-14.5 32.39,-32.4 v -266.9 c 0,-17.8 -14.58,-32.4 -32.39,-32.4" /><path
         id="path644"
         style="fill:#9293ec;fill-opacity:1;fill-rule:nonzero;stroke:none"
         d="m 5536.6,1898.9 c -17.82,0 -32.4,14.6 -32.4,32.4 v 266.9 c 0,17.9 14.58,32.4 32.4,32.4 17.82,0 32.39,-14.5 32.39,-32.4 v -266.9 c 0,-17.8 -14.57,-32.4 -32.39,-32.4" /><path
         id="path646"
         style="fill:#9293ec;fill-opacity:1;fill-rule:nonzero;stroke:none"
         d="m 6074.12,1898.9 c -17.82,0 -32.4,14.6 -32.4,32.4 v 266.9 c 0,17.9 14.58,32.4 32.4,32.4 17.82,0 32.39,-14.5 32.39,-32.4 v -266.9 c 0,-17.8 -14.57,-32.4 -32.39,-32.4" /><path
         id="path648"
         style="fill:#9293ec;fill-opacity:1;fill-rule:nonzero;stroke:none"
         d="m 6611.64,1898.9 c -17.82,0 -32.39,14.6 -32.39,32.4 v 266.9 c 0,17.9 14.57,32.4 32.39,32.4 17.82,0 32.4,-14.5 32.4,-32.4 v -266.9 c 0,-17.8 -14.58,-32.4 -32.4,-32.4" /><path
         id="path650"
         style="fill:#9293ec;fill-opacity:1;fill-rule:nonzero;stroke:none"
         d="m 7149.16,1898.9 c -17.82,0 -32.39,14.6 -32.39,32.4 v 266.9 c 0,17.9 14.57,32.4 32.39,32.4 17.82,0 32.4,-14.5 32.4,-32.4 v -266.9 c 0,-17.8 -14.58,-32.4 -32.4,-32.4" /><path
         id="path652"
         style="fill:#9293ec;fill-opacity:1;fill-rule:nonzero;stroke:none"
         d="m 7629.83,1898.9 c -17.82,0 -32.4,14.6 -32.4,32.4 v 266.9 c 0,17.9 14.58,32.4 32.4,32.4 17.82,0 32.39,-14.5 32.39,-32.4 v -266.9 c 0,-17.8 -14.57,-32.4 -32.39,-32.4" /><path
         id="path654"
         style="fill:#d1d1ff;fill-opacity:1;fill-rule:nonzero;stroke:none"
         d="M 5224.56,4419.9 3671.72,1822.3 3255.46,2071.1 4808.29,4668.7 5224.56,4419.9" /><path
         id="path656"
         style="fill:#9293ec;fill-opacity:1;fill-rule:nonzero;stroke:none"
         d="m 3679.55,2015.6 c -5.64,0 -11.35,1.5 -16.52,4.6 l -229.14,137 c -15.29,9.1 -20.32,29.1 -11.18,44.4 6.05,10.1 16.85,15.7 27.9,15.7 5.65,0 11.35,-1.4 16.53,-4.5 l 229.13,-137 c 15.29,-9.1 20.33,-29.1 11.18,-44.4 -6.05,-10.2 -16.85,-15.8 -27.9,-15.8" /><path
         id="path658"
         style="fill:#9293ec;fill-opacity:1;fill-rule:nonzero;stroke:none"
         d="m 3955.36,2477 c -5.65,0 -11.36,1.5 -16.53,4.6 l -229.14,136.9 c -15.29,9.2 -20.32,29.2 -11.18,44.5 6.05,10.1 16.85,15.7 27.9,15.7 5.65,0 11.36,-1.5 16.53,-4.6 l 229.14,-136.9 c 15.29,-9.2 20.32,-29.2 11.18,-44.5 -6.05,-10.1 -16.86,-15.7 -27.9,-15.7" /><path
         id="path660"
         style="fill:#9293ec;fill-opacity:1;fill-rule:nonzero;stroke:none"
         d="m 4231.17,2938.4 c -5.65,0 -11.36,1.4 -16.54,4.5 l -229.12,137 c -15.3,9.1 -20.33,29.1 -11.19,44.4 6.05,10.1 16.85,15.8 27.89,15.8 5.65,0 11.36,-1.5 16.54,-4.6 l 229.13,-137 c 15.29,-9.1 20.32,-29.1 11.18,-44.4 -6.04,-10.1 -16.84,-15.7 -27.89,-15.7" /><path
         id="path662"
         style="fill:#9293ec;fill-opacity:1;fill-rule:nonzero;stroke:none"
         d="m 4506.97,3399.7 c -5.65,0 -11.36,1.5 -16.53,4.6 l -229.13,137 c -15.29,9.1 -20.33,29.1 -11.19,44.4 6.05,10.1 16.85,15.7 27.9,15.7 5.64,0 11.36,-1.4 16.53,-4.5 l 229.14,-137 c 15.29,-9.1 20.32,-29.1 11.18,-44.4 -6.05,-10.1 -16.85,-15.8 -27.9,-15.8" /><path
         id="path664"
         style="fill:#9293ec;fill-opacity:1;fill-rule:nonzero;stroke:none"
         d="m 4782.78,3861.1 c -5.65,0 -11.36,1.5 -16.54,4.6 l -229.13,136.9 c -15.29,9.2 -20.33,29.2 -11.19,44.5 6.06,10.1 16.86,15.7 27.9,15.7 5.65,0 11.36,-1.5 16.53,-4.6 l 229.14,-136.9 c 15.3,-9.2 20.32,-29.2 11.18,-44.5 -6.04,-10.1 -16.84,-15.7 -27.89,-15.7" /><path
         id="path666"
         style="fill:#9293ec;fill-opacity:1;fill-rule:nonzero;stroke:none"
         d="m 5029.41,4273.7 c -5.65,0 -11.36,1.4 -16.53,4.5 l -229.13,137 c -15.3,9.1 -20.33,29.1 -11.18,44.4 6.04,10.1 16.85,15.8 27.89,15.8 5.65,0 11.36,-1.5 16.53,-4.6 l 229.13,-137 c 15.3,-9.1 20.33,-29.1 11.19,-44.4 -6.05,-10.1 -16.86,-15.7 -27.9,-15.7" /><path
         id="path668"
         style="fill:#ffbc96;fill-opacity:1;fill-rule:nonzero;stroke:none"
         d="m 8523.63,7521.3 122.44,248.7 c 0,0 22.73,272.6 79.54,291.6 46.7,15.5 60.59,-170.5 60.59,-170.5 0,0 159.05,325.7 200.71,287.9 41.65,-37.9 -56.81,-291.6 -56.81,-291.6 l 108.26,-49.1 c 76.3,-34.6 114.31,-121.1 88.18,-200.7 l -23.5,-71.5 c -9.11,-27.8 -24.97,-52.8 -46.16,-72.9 l -215.14,-204.2 -278.98,-37.9 -39.13,270.2" /><path
         id="path670"
         style="fill:#26289c;fill-opacity:1;fill-rule:nonzero;stroke:none"
         d="m 7070.79,7817.7 863.14,-702.9 630.55,506.5 351.45,-423.8 -753.47,-648.1 c -145.33,-125 -354.85,-141.5 -518.01,-40.9 l -692.54,427.1 118.88,882.1" /><path
         id="path672"
         style="fill:#d28572;fill-opacity:1;fill-rule:nonzero;stroke:none"
         d="m 8879.73,7664.9 c -3.71,0 -7.19,0.7 -10.34,2.4 -21.09,11.1 -19.39,50.8 5.69,132.7 l 19.76,-6.1 c -30.41,-99.3 -15.95,-108.2 -15.8,-108.3 10.26,-5.1 56.72,35.5 95.59,84.2 l 16.17,-12.9 c -23.38,-29.3 -77.42,-92 -111.07,-92" /><path
         id="path674"
         style="fill:#d28572;fill-opacity:1;fill-rule:nonzero;stroke:none"
         d="m 9025.25,7547.8 c -4.88,0 -9.68,0.7 -14.43,2.3 -9,2.9 -15.31,9.2 -18.24,18.1 -5.41,16.5 2.19,41.5 13.49,65.9 -17.14,-13.9 -35.43,-25 -51.01,-26.6 -9.3,-0.8 -17.36,1.4 -23.77,6.7 -38.85,31.8 34.53,136.7 49.63,157.4 l 16.72,-12.2 c -33.09,-45.3 -69.98,-115.5 -53.23,-129.2 1.37,-1.2 3.54,-2.7 8.6,-2.1 25.25,2.5 72.5,49.8 96.33,79 l 16.44,-12.5 c -24.55,-34.7 -60.78,-97.9 -53.55,-119.9 0.86,-2.6 2.34,-4.1 5.09,-5 31.51,-10.6 81.98,47.4 97.21,68.5 l 16.76,-12.1 c -6.29,-8.7 -58.13,-78.3 -106.04,-78.3" /><path
         id="path676"
         style="fill:#a7a7cc;fill-opacity:1;fill-rule:nonzero;stroke:none"
         d="m 9329.41,2649.2 93.04,-816.6 h 1157.75 l -475.5,403.2 -175.74,444.4 -599.55,-31" /><path
         id="path678"
         style="fill:#be443d;fill-opacity:1;fill-rule:nonzero;stroke:none"
         d="m 7579.02,5447.1 1315.43,-136.7 c 365.79,-38.1 670.31,-297.6 765.86,-652.7 l 571.89,-2125.6 -313.58,-6.9 -1119.84,1564.3 -1219.76,1357.6" /><path
         id="path680"
         style="fill:#ffbc96;fill-opacity:1;fill-rule:nonzero;stroke:none"
         d="m 8157.89,5646.9 382.47,72.4 306.66,-230.9 -651.22,-10.3 -37.91,168.8" /><path
         id="path682"
         style="fill:#ffbc96;fill-opacity:1;fill-rule:nonzero;stroke:none"
         d="m 7505.15,8102.2 -27.7,-115.4 -79.8,-333.2 -11.58,-47.6 -589.21,129 124.04,573.9 196.41,41.4 387.84,-248.1" /><path
         id="path684"
         style="fill:#1b1b43;fill-opacity:1;fill-rule:nonzero;stroke:none"
         d="m 7477.45,7986.8 -79.8,-333.2 -1.24,-1.3 c -148.45,145.6 -250.16,296.9 -302.26,454.8 l 383.3,-120.3" /><path
         id="path686"
         style="fill:#ffbc96;fill-opacity:1;fill-rule:nonzero;stroke:none"
         d="m 7750.9,8372.4 c 0,0 105.68,-148.4 74.2,-202.4 -31.48,-53.9 -146.15,4.6 -146.15,4.6 l 71.95,197.8" /><path
         id="path688"
         style="fill:#ffbc96;fill-opacity:1;fill-rule:nonzero;stroke:none"
         d="m 7851.23,8670.5 c 0,0 -87.87,-754.6 -315.28,-759.8 -227.41,-5.1 -516.85,217.1 -516.85,217.1 l -31.01,444.5 418.65,294.6 444.49,-196.4" /><path
         id="path690"
         style="fill:#1b1b43;fill-opacity:1;fill-rule:nonzero;stroke:none"
         d="m 7375.73,8448.3 c 24.55,101 72.68,191.5 201.57,245.5 184.52,-157.4 375.39,-102.1 571.12,116.2 0,0 -276.52,-20.6 -470.33,232.6 -193.82,253.3 -602.13,-38.7 -602.13,-38.7 -356.62,-25.9 -366.96,-483.3 -183.48,-821.8 53.8,102.1 250.67,201.6 392.8,206.7 l 90.45,59.5" /><path
         id="path692"
         style="fill:#ffbc96;fill-opacity:1;fill-rule:nonzero;stroke:none"
         d="m 7448.09,8461.2 c 16.18,-77.8 -20.93,-151.2 -82.89,-164.1 -61.96,-12.9 -125.3,39.6 -141.48,117.4 -16.18,77.7 20.93,151.2 82.89,164.1 61.96,12.9 125.3,-39.7 141.48,-117.4" /><path
         id="path694"
         style="fill:#1b1b43;fill-opacity:1;fill-rule:nonzero;stroke:none"
         d="m 7338.52,8395.8 c 9.93,40.6 -5.11,81.3 -43.56,97.5 l 1.32,8 c 11.97,0.8 24.35,-3.3 34.65,-10.5 10.18,-7.3 17.99,-17.8 22.82,-29.3 9.09,-23 6.97,-50.7 -8,-69.4 l -7.23,3.7" /><path
         id="path696"
         style="fill:#1b1b43;fill-opacity:1;fill-rule:nonzero;stroke:none"
         d="m 7731.88,8391.6 c -5.69,-20.1 -23.84,-32.4 -40.53,-27.7 -16.69,4.7 -25.62,24.8 -19.93,44.8 5.69,20.1 23.83,32.5 40.52,27.7 16.7,-4.7 25.62,-24.8 19.94,-44.8" /><path
         id="path698"
         style="fill:#ffffff;fill-opacity:1;fill-rule:nonzero;stroke:none"
         d="m 7546.29,8190.7 c 12.43,-143.5 87.87,-167.2 125.77,-70.3 l -125.77,70.3" /><path
         id="path700"
         style="fill:#1b1b43;fill-opacity:1;fill-rule:nonzero;stroke:none"
         d="m 7816.09,8467.7 c -2.73,-23.9 -35.01,-11.6 -75.42,-7 -40.42,4.6 -72.65,8.7 -70.94,23.7 1.71,15 35.85,23.4 76.27,18.8 40.42,-4.6 72.69,-12.5 70.09,-35.5" /><path
         id="path702"
         style="fill:#ffa988;fill-opacity:1;fill-rule:nonzero;stroke:none"
         d="m 7498.85,8229 c -45.4,0 -82.2,36.8 -82.2,82.2 0,6.1 0.67,12 1.92,17.7 10.48,11.9 18.8,26.4 24.5,42.7 14.65,13.5 34.25,21.8 55.78,21.8 45.4,0 82.2,-36.8 82.2,-82.2 0,-45.4 -36.8,-82.2 -82.2,-82.2" /><path
         id="path704"
         style="fill:#ffa988;fill-opacity:1;fill-rule:nonzero;stroke:none"
         d="m 7418.57,8328.9 c 3.66,16.7 12.4,31.5 24.5,42.7 -5.7,-16.3 -14.02,-30.8 -24.5,-42.7" /><path
         id="path706"
         style="fill:#d1d1ff;fill-opacity:1;fill-rule:nonzero;stroke:none"
         d="m 9050.31,2649.2 93.03,-816.6 h 1157.76 l -475.51,403.2 -175.73,444.4 -599.55,-31" /><path
         id="path708"
         style="fill:#fe5b52;fill-opacity:1;fill-rule:nonzero;stroke:none"
         d="m 6011.25,5553.9 136.36,-774.7 c 53.63,-304.7 306.28,-534.8 614.68,-559.8 l 1647.13,-133.3 506.51,-1560.9 h 1002.69 l -669.46,2147.5 c -78.43,251.5 -283.55,443.2 -539.85,504.4 l -1130.29,270 -1040.58,344.6 -527.19,-237.8" /><path
         id="path710"
         style="fill:#be443d;fill-opacity:1;fill-rule:nonzero;stroke:none"
         d="m 8409.42,4101.5 249.81,-15.5 c 0,0 -25.84,-205 -144.71,-311.8 l -105.1,327.3" /><path
         id="path712"
         style="fill:#102048;fill-opacity:1;fill-rule:nonzero;stroke:none"
         d="m 9651.39,2096.1 -22.78,34.5 185.59,122.4 22.77,-34.5 -185.58,-122.4" /><path
         id="path714"
         style="fill:#3335cf;fill-opacity:1;fill-rule:nonzero;stroke:none"
         d="m 7642.01,6887.4 -50.86,-1167.3 -11.99,-270.4 v -2.5 h -13.64 l -643.37,2.5 -888.16,3.7 c -100.05,0.4 -175.72,91.4 -157.95,190.2 128.19,703.4 299.78,1386.8 608.23,2008.7 80.22,161.3 267.52,243.1 444.9,197.2 l 208.81,-53.7 c 78.15,-20.3 152.99,-52.9 216.25,-102.6 116.19,-91.3 179.04,-213.3 224.93,-385.7 36.8,-137.3 55.82,-278.3 62.85,-420.1" /><path
         id="path716"
         style="fill:#1b1b43;fill-opacity:1;fill-rule:nonzero;stroke:none"
         d="m 9080.71,5336.8 h -1012.4 v 147.1 h 1012.4 v -147.1" /><path
         id="path718"
         style="fill:#1b1b43;fill-opacity:1;fill-rule:nonzero;stroke:none"
         d="m 7785.9,5488.6 -206.74,-38.9 -13.64,-2.5 -643.37,2.5 c -265.46,271.7 -353.53,827.4 -383.71,1520.4 l 1052.71,-1250 194.75,-231.5" /><path
         id="path720"
         style="fill:#3335cf;fill-opacity:1;fill-rule:nonzero;stroke:none"
         d="m 7069.07,7466.2 413.47,-1261.1 823.51,-485.8 -144.71,-485.8 -868.3,279.1 c -226.3,65.9 -403.39,311.4 -472.45,536.8 l -282.15,920.7 530.63,496.1" /><path
         id="path722"
         style="fill:#1b1b43;fill-opacity:1;fill-rule:nonzero;stroke:none"
         d="m 9080.71,5336.8 h -144.72 l 799.39,1612.6 H 9880.1 L 9080.71,5336.8" /><path
         id="path724"
         style="fill:#1b1b43;fill-opacity:1;fill-rule:nonzero;stroke:none"
         d="m 8300.8,5710.4 -826.87,487.8 -1.22,3.8 -413.47,1261 19.65,6.5 412.26,-1257.4 820.16,-483.9 -10.51,-17.8" /><g
         transform="scale(1.59844)"
         id="g726"><path
           id="path728"
           style="fill:#9192ff;fill-opacity:1;fill-rule:nonzero;stroke:none"
           d="m 15730.9,7577.8 c -314.3,0 -569.1,-254.79 -569.1,-569.09 0,-107.07 29.6,-207.2 81,-292.74 l -174.6,-212.62 327.2,45.8 c 94.1,-68.81 210,-109.53 335.5,-109.53 314.3,0 569.1,254.79 569.1,569.09 0,314.3 -254.8,569.09 -569.1,569.09" /></g><g
         transform="scale(1.5196)"
         id="g730"><path
           id="path732"
           style="fill:#ffffff;fill-opacity:1;fill-rule:nonzero;stroke:none"
           d="m 16300,7372.37 c 0,-43.83 -35.5,-79.36 -79.4,-79.36 -43.9,0 -79.3,35.53 -79.3,79.36 0,43.83 35.4,79.36 79.3,79.36 43.9,0 79.4,-35.53 79.4,-79.36" /></g><g
         transform="scale(1.55003)"
         id="g734"><path
           id="path736"
           style="fill:#ffffff;fill-opacity:1;fill-rule:nonzero;stroke:none"
           d="m 16300,7227.61 c 0,-42.97 -34.8,-77.8 -77.8,-77.8 -43,0 -77.8,34.83 -77.8,77.8 0,42.97 34.8,77.8 77.8,77.8 43,0 77.8,-34.83 77.8,-77.8" /></g><g
         transform="scale(1.58047)"
         id="g738"><path
           id="path740"
           style="fill:#ffffff;fill-opacity:1;fill-rule:nonzero;stroke:none"
           d="m 16300,7088.39 c 0,-42.14 -34.2,-76.3 -76.3,-76.3 -42.1,0 -76.3,34.16 -76.3,76.3 0,42.15 34.2,76.31 76.3,76.31 42.1,0 76.3,-34.16 76.3,-76.31" /></g><path
         id="path742"
         style="fill:#9192ff;fill-opacity:1;fill-rule:nonzero;stroke:none"
         d="m 4970.67,10913.6 c 502.39,0 909.65,-407.3 909.65,-909.7 0,-171.1 -47.34,-331.2 -129.53,-467.9 l 279.16,-339.8 -522.94,73.2 c -150.4,-110 -335.73,-175.1 -536.34,-175.1 -502.39,0 -909.65,407.2 -909.65,909.6 0,502.4 407.26,909.7 909.65,909.7" /><path
         id="path744"
         style="fill:#ffffff;fill-opacity:1;fill-rule:nonzero;stroke:none"
         d="m 5346.25,10003.9 c 0,-66.6 53.99,-120.6 120.59,-120.6 66.61,0 120.6,54 120.6,120.6 0,66.6 -53.99,120.6 -120.6,120.6 -66.6,0 -120.59,-54 -120.59,-120.6" /><path
         id="path746"
         style="fill:#ffffff;fill-opacity:1;fill-rule:nonzero;stroke:none"
         d="m 4850.07,10003.9 c 0,-66.6 54,-120.6 120.6,-120.6 66.61,0 120.6,54 120.6,120.6 0,66.6 -53.99,120.6 -120.6,120.6 -66.6,0 -120.6,-54 -120.6,-120.6" /><path
         id="path748"
         style="fill:#ffffff;fill-opacity:1;fill-rule:nonzero;stroke:none"
         d="m 4353.9,10003.9 c 0,-66.6 53.99,-120.6 120.6,-120.6 66.6,0 120.59,54 120.59,120.6 0,66.6 -53.99,120.6 -120.59,120.6 -66.61,0 -120.6,-54 -120.6,-120.6" /><g
         transform="scale(1.69121)"
         id="g750"><path
           id="path752"
           style="fill:#102048;fill-opacity:1;fill-rule:nonzero;stroke:none"
           d="M 16300,1077.51 H 1304.35 v 24.42 H 16300 v -24.42" /></g></g></g></svg>